<?xml version="1.0" encoding="utf-8" standalone="no"?>
<!DOCTYPE svg PUBLIC "-//W3C//DTD SVG 1.1//EN"
  "http://www.w3.org/Graphics/SVG/1.1/DTD/svg11.dtd">
<svg xmlns:xlink="http://www.w3.org/1999/xlink" width="504pt" height="360pt" viewBox="0 0 504 360" xmlns="http://www.w3.org/2000/svg" version="1.1">
 <metadata>
  <rdf:RDF xmlns:dc="http://purl.org/dc/elements/1.1/" xmlns:cc="http://creativecommons.org/ns#" xmlns:rdf="http://www.w3.org/1999/02/22-rdf-syntax-ns#">
   <cc:Work>
    <dc:type rdf:resource="http://purl.org/dc/dcmitype/StillImage"/>
    <dc:date>2024-04-15T13:37:17.379603</dc:date>
    <dc:format>image/svg+xml</dc:format>
    <dc:creator>
     <cc:Agent>
      <dc:title>Matplotlib v3.8.2, https://matplotlib.org/</dc:title>
     </cc:Agent>
    </dc:creator>
   </cc:Work>
  </rdf:RDF>
 </metadata>
 <defs>
  <style type="text/css">*{stroke-linejoin: round; stroke-linecap: butt}</style>
 </defs>
 <g id="figure_1">
  <g id="patch_1">
   <path d="M 0 360 
L 504 360 
L 504 0 
L 0 0 
z
" style="fill: #ffffff"/>
  </g>
  <g id="axes_1">
   <g id="patch_2">
    <path d="M 63 320.4 
L 453.6 320.4 
L 453.6 43.2 
L 63 43.2 
z
" style="fill: #ffffff"/>
   </g>
   <g id="patch_3">
    <path d="M 94.248 48363.606123 
L 95.55 48363.606123 
L 95.55 307.8 
L 94.248 307.8 
z
" clip-path="url(#pd5274a88a0)" style="fill: #1f77b4"/>
   </g>
   <g id="patch_4">
    <path d="M 95.55 48363.606123 
L 96.852 48363.606123 
L 96.852 307.8 
L 95.55 307.8 
z
" clip-path="url(#pd5274a88a0)" style="fill: #1f77b4"/>
   </g>
   <g id="patch_5">
    <path d="M 96.852 48363.606123 
L 98.154 48363.606123 
L 98.154 259.744194 
L 96.852 259.744194 
z
" clip-path="url(#pd5274a88a0)" style="fill: #1f77b4"/>
   </g>
   <g id="patch_6">
    <path d="M 98.154 48363.606123 
L 99.456 48363.606123 
L 99.456 259.744194 
L 98.154 259.744194 
z
" clip-path="url(#pd5274a88a0)" style="fill: #1f77b4"/>
   </g>
   <g id="patch_7">
    <path d="M 99.456 48363.606123 
L 100.758 48363.606123 
L 100.758 229.793447 
L 99.456 229.793447 
z
" clip-path="url(#pd5274a88a0)" style="fill: #1f77b4"/>
   </g>
   <g id="patch_8">
    <path d="M 100.758 48363.606123 
L 102.06 48363.606123 
L 102.06 216.873869 
L 100.758 216.873869 
z
" clip-path="url(#pd5274a88a0)" style="fill: #1f77b4"/>
   </g>
   <g id="patch_9">
    <path d="M 102.06 48363.606123 
L 103.362 48363.606123 
L 103.362 197.326762 
L 102.06 197.326762 
z
" clip-path="url(#pd5274a88a0)" style="fill: #1f77b4"/>
   </g>
   <g id="patch_10">
    <path d="M 103.362 48363.606123 
L 104.664 48363.606123 
L 104.664 185.542759 
L 103.362 185.542759 
z
" clip-path="url(#pd5274a88a0)" style="fill: #1f77b4"/>
   </g>
   <g id="patch_11">
    <path d="M 104.664 48363.606123 
L 105.966 48363.606123 
L 105.966 170.809897 
L 104.664 170.809897 
z
" clip-path="url(#pd5274a88a0)" style="fill: #1f77b4"/>
   </g>
   <g id="patch_12">
    <path d="M 105.966 48363.606123 
L 107.268 48363.606123 
L 107.268 160.019657 
L 105.966 160.019657 
z
" clip-path="url(#pd5274a88a0)" style="fill: #1f77b4"/>
   </g>
   <g id="patch_13">
    <path d="M 107.268 48363.606123 
L 108.57 48363.606123 
L 108.57 149.229048 
L 107.268 149.229048 
z
" clip-path="url(#pd5274a88a0)" style="fill: #1f77b4"/>
   </g>
   <g id="patch_14">
    <path d="M 108.57 48363.606123 
L 109.872 48363.606123 
L 109.872 140.12103 
L 108.57 140.12103 
z
" clip-path="url(#pd5274a88a0)" style="fill: #1f77b4"/>
   </g>
   <g id="patch_15">
    <path d="M 109.872 48363.606123 
L 111.174 48363.606123 
L 111.174 131.37438 
L 109.872 131.37438 
z
" clip-path="url(#pd5274a88a0)" style="fill: #1f77b4"/>
   </g>
   <g id="patch_16">
    <path d="M 111.174 48363.606123 
L 112.476 48363.606123 
L 112.476 122.830766 
L 111.174 122.830766 
z
" clip-path="url(#pd5274a88a0)" style="fill: #1f77b4"/>
   </g>
   <g id="patch_17">
    <path d="M 112.476 48363.606123 
L 113.778 48363.606123 
L 113.778 114.998407 
L 112.476 114.998407 
z
" clip-path="url(#pd5274a88a0)" style="fill: #1f77b4"/>
   </g>
   <g id="patch_18">
    <path d="M 113.778 48363.606123 
L 115.08 48363.606123 
L 115.08 108.218791 
L 113.778 108.218791 
z
" clip-path="url(#pd5274a88a0)" style="fill: #1f77b4"/>
   </g>
   <g id="patch_19">
    <path d="M 115.08 48363.606123 
L 116.382 48363.606123 
L 116.382 103.219207 
L 115.08 103.219207 
z
" clip-path="url(#pd5274a88a0)" style="fill: #1f77b4"/>
   </g>
   <g id="patch_20">
    <path d="M 116.382 48363.606123 
L 117.684 48363.606123 
L 117.684 96.489376 
L 116.382 96.489376 
z
" clip-path="url(#pd5274a88a0)" style="fill: #1f77b4"/>
   </g>
   <g id="patch_21">
    <path d="M 117.684 48363.606123 
L 118.986 48363.606123 
L 118.986 91.026026 
L 117.684 91.026026 
z
" clip-path="url(#pd5274a88a0)" style="fill: #1f77b4"/>
   </g>
   <g id="patch_22">
    <path d="M 118.986 48363.606123 
L 120.288 48363.606123 
L 120.288 86.247384 
L 118.986 86.247384 
z
" clip-path="url(#pd5274a88a0)" style="fill: #1f77b4"/>
   </g>
   <g id="patch_23">
    <path d="M 120.288 48363.606123 
L 121.59 48363.606123 
L 121.59 81.839552 
L 120.288 81.839552 
z
" clip-path="url(#pd5274a88a0)" style="fill: #1f77b4"/>
   </g>
   <g id="patch_24">
    <path d="M 121.59 48363.606123 
L 122.892 48363.606123 
L 122.892 77.927637 
L 121.59 77.927637 
z
" clip-path="url(#pd5274a88a0)" style="fill: #1f77b4"/>
   </g>
   <g id="patch_25">
    <path d="M 122.892 48363.606123 
L 124.194 48363.606123 
L 124.194 74.059673 
L 122.892 74.059673 
z
" clip-path="url(#pd5274a88a0)" style="fill: #1f77b4"/>
   </g>
   <g id="patch_26">
    <path d="M 124.194 48363.606123 
L 125.496 48363.606123 
L 125.496 70.857138 
L 124.194 70.857138 
z
" clip-path="url(#pd5274a88a0)" style="fill: #1f77b4"/>
   </g>
   <g id="patch_27">
    <path d="M 125.496 48363.606123 
L 126.798 48363.606123 
L 126.798 67.733886 
L 125.496 67.733886 
z
" clip-path="url(#pd5274a88a0)" style="fill: #1f77b4"/>
   </g>
   <g id="patch_28">
    <path d="M 126.798 48363.606123 
L 128.1 48363.606123 
L 128.1 65.55763 
L 126.798 65.55763 
z
" clip-path="url(#pd5274a88a0)" style="fill: #1f77b4"/>
   </g>
   <g id="patch_29">
    <path d="M 128.1 48363.606123 
L 129.402 48363.606123 
L 129.402 63.153051 
L 128.1 63.153051 
z
" clip-path="url(#pd5274a88a0)" style="fill: #1f77b4"/>
   </g>
   <g id="patch_30">
    <path d="M 129.402 48363.606123 
L 130.704 48363.606123 
L 130.704 61.519181 
L 129.402 61.519181 
z
" clip-path="url(#pd5274a88a0)" style="fill: #1f77b4"/>
   </g>
   <g id="patch_31">
    <path d="M 130.704 48363.606123 
L 132.006 48363.606123 
L 132.006 59.787181 
L 130.704 59.787181 
z
" clip-path="url(#pd5274a88a0)" style="fill: #1f77b4"/>
   </g>
   <g id="patch_32">
    <path d="M 132.006 48363.606123 
L 133.308 48363.606123 
L 133.308 58.678784 
L 132.006 58.678784 
z
" clip-path="url(#pd5274a88a0)" style="fill: #1f77b4"/>
   </g>
   <g id="patch_33">
    <path d="M 133.308 48363.606123 
L 134.61 48363.606123 
L 134.61 57.347183 
L 133.308 57.347183 
z
" clip-path="url(#pd5274a88a0)" style="fill: #1f77b4"/>
   </g>
   <g id="patch_34">
    <path d="M 134.61 48363.606123 
L 135.912 48363.606123 
L 135.912 56.703864 
L 134.61 56.703864 
z
" clip-path="url(#pd5274a88a0)" style="fill: #1f77b4"/>
   </g>
   <g id="patch_35">
    <path d="M 135.912 48363.606123 
L 137.214 48363.606123 
L 137.214 56.942115 
L 135.912 56.942115 
z
" clip-path="url(#pd5274a88a0)" style="fill: #1f77b4"/>
   </g>
   <g id="patch_36">
    <path d="M 137.214 48363.606123 
L 138.516 48363.606123 
L 138.516 56.174207 
L 137.214 56.174207 
z
" clip-path="url(#pd5274a88a0)" style="fill: #1f77b4"/>
   </g>
   <g id="patch_37">
    <path d="M 138.516 48363.606123 
L 139.818 48363.606123 
L 139.818 55.8 
L 138.516 55.8 
z
" clip-path="url(#pd5274a88a0)" style="fill: #1f77b4"/>
   </g>
   <g id="patch_38">
    <path d="M 139.818 48363.606123 
L 141.12 48363.606123 
L 141.12 56.179055 
L 139.818 56.179055 
z
" clip-path="url(#pd5274a88a0)" style="fill: #1f77b4"/>
   </g>
   <g id="patch_39">
    <path d="M 141.12 48363.606123 
L 142.422 48363.606123 
L 142.422 56.34479 
L 141.12 56.34479 
z
" clip-path="url(#pd5274a88a0)" style="fill: #1f77b4"/>
   </g>
   <g id="patch_40">
    <path d="M 142.422 48363.606123 
L 143.724 48363.606123 
L 143.724 57.233285 
L 142.422 57.233285 
z
" clip-path="url(#pd5274a88a0)" style="fill: #1f77b4"/>
   </g>
   <g id="patch_41">
    <path d="M 143.724 48363.606123 
L 145.026 48363.606123 
L 145.026 57.772169 
L 143.724 57.772169 
z
" clip-path="url(#pd5274a88a0)" style="fill: #1f77b4"/>
   </g>
   <g id="patch_42">
    <path d="M 145.026 48363.606123 
L 146.328 48363.606123 
L 146.328 58.783016 
L 145.026 58.783016 
z
" clip-path="url(#pd5274a88a0)" style="fill: #1f77b4"/>
   </g>
   <g id="patch_43">
    <path d="M 146.328 48363.606123 
L 147.63 48363.606123 
L 147.63 60.120047 
L 146.328 60.120047 
z
" clip-path="url(#pd5274a88a0)" style="fill: #1f77b4"/>
   </g>
   <g id="patch_44">
    <path d="M 147.63 48363.606123 
L 148.932 48363.606123 
L 148.932 61.405527 
L 147.63 61.405527 
z
" clip-path="url(#pd5274a88a0)" style="fill: #1f77b4"/>
   </g>
   <g id="patch_45">
    <path d="M 148.932 48363.606123 
L 150.234 48363.606123 
L 150.234 62.580968 
L 148.932 62.580968 
z
" clip-path="url(#pd5274a88a0)" style="fill: #1f77b4"/>
   </g>
   <g id="patch_46">
    <path d="M 150.234 48363.606123 
L 151.536 48363.606123 
L 151.536 64.450214 
L 150.234 64.450214 
z
" clip-path="url(#pd5274a88a0)" style="fill: #1f77b4"/>
   </g>
   <g id="patch_47">
    <path d="M 151.536 48363.606123 
L 152.838 48363.606123 
L 152.838 66.188053 
L 151.536 66.188053 
z
" clip-path="url(#pd5274a88a0)" style="fill: #1f77b4"/>
   </g>
   <g id="patch_48">
    <path d="M 152.838 48363.606123 
L 154.14 48363.606123 
L 154.14 68.262792 
L 152.838 68.262792 
z
" clip-path="url(#pd5274a88a0)" style="fill: #1f77b4"/>
   </g>
   <g id="patch_49">
    <path d="M 154.14 48363.606123 
L 155.442 48363.606123 
L 155.442 70.156433 
L 154.14 70.156433 
z
" clip-path="url(#pd5274a88a0)" style="fill: #1f77b4"/>
   </g>
   <g id="patch_50">
    <path d="M 155.442 48363.606123 
L 156.744 48363.606123 
L 156.744 72.636731 
L 155.442 72.636731 
z
" clip-path="url(#pd5274a88a0)" style="fill: #1f77b4"/>
   </g>
   <g id="patch_51">
    <path d="M 156.744 48363.606123 
L 158.046 48363.606123 
L 158.046 76.000298 
L 156.744 76.000298 
z
" clip-path="url(#pd5274a88a0)" style="fill: #1f77b4"/>
   </g>
   <g id="patch_52">
    <path d="M 158.046 48363.606123 
L 159.348 48363.606123 
L 159.348 77.998544 
L 158.046 77.998544 
z
" clip-path="url(#pd5274a88a0)" style="fill: #1f77b4"/>
   </g>
   <g id="patch_53">
    <path d="M 159.348 48363.606123 
L 160.65 48363.606123 
L 160.65 80.692507 
L 159.348 80.692507 
z
" clip-path="url(#pd5274a88a0)" style="fill: #1f77b4"/>
   </g>
   <g id="patch_54">
    <path d="M 160.65 48363.606123 
L 161.952 48363.606123 
L 161.952 83.895048 
L 160.65 83.895048 
z
" clip-path="url(#pd5274a88a0)" style="fill: #1f77b4"/>
   </g>
   <g id="patch_55">
    <path d="M 161.952 48363.606123 
L 163.254 48363.606123 
L 163.254 87.10377 
L 161.952 87.10377 
z
" clip-path="url(#pd5274a88a0)" style="fill: #1f77b4"/>
   </g>
   <g id="patch_56">
    <path d="M 163.254 48363.606123 
L 164.556 48363.606123 
L 164.556 91.071775 
L 163.254 91.071775 
z
" clip-path="url(#pd5274a88a0)" style="fill: #1f77b4"/>
   </g>
   <g id="patch_57">
    <path d="M 164.556 48363.606123 
L 165.858 48363.606123 
L 165.858 94.497708 
L 164.556 94.497708 
z
" clip-path="url(#pd5274a88a0)" style="fill: #1f77b4"/>
   </g>
   <g id="patch_58">
    <path d="M 165.858 48363.606123 
L 167.16 48363.606123 
L 167.16 98.816255 
L 165.858 98.816255 
z
" clip-path="url(#pd5274a88a0)" style="fill: #1f77b4"/>
   </g>
   <g id="patch_59">
    <path d="M 167.16 48363.606123 
L 168.462 48363.606123 
L 168.462 102.980449 
L 167.16 102.980449 
z
" clip-path="url(#pd5274a88a0)" style="fill: #1f77b4"/>
   </g>
   <g id="patch_60">
    <path d="M 168.462 48363.606123 
L 169.764 48363.606123 
L 169.764 108.236402 
L 168.462 108.236402 
z
" clip-path="url(#pd5274a88a0)" style="fill: #1f77b4"/>
   </g>
   <g id="patch_61">
    <path d="M 169.764 48363.606123 
L 171.066 48363.606123 
L 171.066 113.159453 
L 169.764 113.159453 
z
" clip-path="url(#pd5274a88a0)" style="fill: #1f77b4"/>
   </g>
   <g id="patch_62">
    <path d="M 171.066 48363.606123 
L 172.368 48363.606123 
L 172.368 118.211529 
L 171.066 118.211529 
z
" clip-path="url(#pd5274a88a0)" style="fill: #1f77b4"/>
   </g>
   <g id="patch_63">
    <path d="M 172.368 48363.606123 
L 173.67 48363.606123 
L 173.67 123.503288 
L 172.368 123.503288 
z
" clip-path="url(#pd5274a88a0)" style="fill: #1f77b4"/>
   </g>
   <g id="patch_64">
    <path d="M 173.67 48363.606123 
L 174.972 48363.606123 
L 174.972 128.386626 
L 173.67 128.386626 
z
" clip-path="url(#pd5274a88a0)" style="fill: #1f77b4"/>
   </g>
   <g id="patch_65">
    <path d="M 174.972 48363.606123 
L 176.274 48363.606123 
L 176.274 132.597416 
L 174.972 132.597416 
z
" clip-path="url(#pd5274a88a0)" style="fill: #1f77b4"/>
   </g>
   <g id="patch_66">
    <path d="M 176.274 48363.606123 
L 177.576 48363.606123 
L 177.576 138.797355 
L 176.274 138.797355 
z
" clip-path="url(#pd5274a88a0)" style="fill: #1f77b4"/>
   </g>
   <g id="patch_67">
    <path d="M 177.576 48363.606123 
L 178.878 48363.606123 
L 178.878 144.153336 
L 177.576 144.153336 
z
" clip-path="url(#pd5274a88a0)" style="fill: #1f77b4"/>
   </g>
   <g id="patch_68">
    <path d="M 178.878 48363.606123 
L 180.18 48363.606123 
L 180.18 147.618191 
L 178.878 147.618191 
z
" clip-path="url(#pd5274a88a0)" style="fill: #1f77b4"/>
   </g>
   <g id="patch_69">
    <path d="M 180.18 48363.606123 
L 181.482 48363.606123 
L 181.482 151.881759 
L 180.18 151.881759 
z
" clip-path="url(#pd5274a88a0)" style="fill: #1f77b4"/>
   </g>
   <g id="patch_70">
    <path d="M 181.482 48363.606123 
L 182.784 48363.606123 
L 182.784 155.100922 
L 181.482 155.100922 
z
" clip-path="url(#pd5274a88a0)" style="fill: #1f77b4"/>
   </g>
   <g id="patch_71">
    <path d="M 182.784 48363.606123 
L 184.086 48363.606123 
L 184.086 158.221258 
L 182.784 158.221258 
z
" clip-path="url(#pd5274a88a0)" style="fill: #1f77b4"/>
   </g>
   <g id="patch_72">
    <path d="M 184.086 48363.606123 
L 185.388 48363.606123 
L 185.388 161.36075 
L 184.086 161.36075 
z
" clip-path="url(#pd5274a88a0)" style="fill: #1f77b4"/>
   </g>
   <g id="patch_73">
    <path d="M 185.388 48363.606123 
L 186.69 48363.606123 
L 186.69 163.52849 
L 185.388 163.52849 
z
" clip-path="url(#pd5274a88a0)" style="fill: #1f77b4"/>
   </g>
   <g id="patch_74">
    <path d="M 186.69 48363.606123 
L 187.992 48363.606123 
L 187.992 166.443297 
L 186.69 166.443297 
z
" clip-path="url(#pd5274a88a0)" style="fill: #1f77b4"/>
   </g>
   <g id="patch_75">
    <path d="M 187.992 48363.606123 
L 189.294 48363.606123 
L 189.294 167.901974 
L 187.992 167.901974 
z
" clip-path="url(#pd5274a88a0)" style="fill: #1f77b4"/>
   </g>
   <g id="patch_76">
    <path d="M 189.294 48363.606123 
L 190.596 48363.606123 
L 190.596 167.546509 
L 189.294 167.546509 
z
" clip-path="url(#pd5274a88a0)" style="fill: #1f77b4"/>
   </g>
   <g id="patch_77">
    <path d="M 190.596 48363.606123 
L 191.898 48363.606123 
L 191.898 170.344151 
L 190.596 170.344151 
z
" clip-path="url(#pd5274a88a0)" style="fill: #1f77b4"/>
   </g>
   <g id="patch_78">
    <path d="M 191.898 48363.606123 
L 193.2 48363.606123 
L 193.2 171.835526 
L 191.898 171.835526 
z
" clip-path="url(#pd5274a88a0)" style="fill: #1f77b4"/>
   </g>
   <g id="patch_79">
    <path d="M 193.2 48363.606123 
L 194.502 48363.606123 
L 194.502 173.110449 
L 193.2 173.110449 
z
" clip-path="url(#pd5274a88a0)" style="fill: #1f77b4"/>
   </g>
   <g id="patch_80">
    <path d="M 194.502 48363.606123 
L 195.804 48363.606123 
L 195.804 173.609366 
L 194.502 173.609366 
z
" clip-path="url(#pd5274a88a0)" style="fill: #1f77b4"/>
   </g>
   <g id="patch_81">
    <path d="M 195.804 48363.606123 
L 197.106 48363.606123 
L 197.106 175.696374 
L 195.804 175.696374 
z
" clip-path="url(#pd5274a88a0)" style="fill: #1f77b4"/>
   </g>
   <g id="patch_82">
    <path d="M 197.106 48363.606123 
L 198.408 48363.606123 
L 198.408 176.608885 
L 197.106 176.608885 
z
" clip-path="url(#pd5274a88a0)" style="fill: #1f77b4"/>
   </g>
   <g id="patch_83">
    <path d="M 198.408 48363.606123 
L 199.71 48363.606123 
L 199.71 176.185692 
L 198.408 176.185692 
z
" clip-path="url(#pd5274a88a0)" style="fill: #1f77b4"/>
   </g>
   <g id="patch_84">
    <path d="M 199.71 48363.606123 
L 201.012 48363.606123 
L 201.012 178.35078 
L 199.71 178.35078 
z
" clip-path="url(#pd5274a88a0)" style="fill: #1f77b4"/>
   </g>
   <g id="patch_85">
    <path d="M 201.012 48363.606123 
L 202.314 48363.606123 
L 202.314 179.929964 
L 201.012 179.929964 
z
" clip-path="url(#pd5274a88a0)" style="fill: #1f77b4"/>
   </g>
   <g id="patch_86">
    <path d="M 202.314 48363.606123 
L 203.616 48363.606123 
L 203.616 178.734516 
L 202.314 178.734516 
z
" clip-path="url(#pd5274a88a0)" style="fill: #1f77b4"/>
   </g>
   <g id="patch_87">
    <path d="M 203.616 48363.606123 
L 204.918 48363.606123 
L 204.918 179.257392 
L 203.616 179.257392 
z
" clip-path="url(#pd5274a88a0)" style="fill: #1f77b4"/>
   </g>
   <g id="patch_88">
    <path d="M 204.918 48363.606123 
L 206.22 48363.606123 
L 206.22 180.909536 
L 204.918 180.909536 
z
" clip-path="url(#pd5274a88a0)" style="fill: #1f77b4"/>
   </g>
   <g id="patch_89">
    <path d="M 206.22 48363.606123 
L 207.522 48363.606123 
L 207.522 181.441602 
L 206.22 181.441602 
z
" clip-path="url(#pd5274a88a0)" style="fill: #1f77b4"/>
   </g>
   <g id="patch_90">
    <path d="M 207.522 48363.606123 
L 208.824 48363.606123 
L 208.824 183.071337 
L 207.522 183.071337 
z
" clip-path="url(#pd5274a88a0)" style="fill: #1f77b4"/>
   </g>
   <g id="patch_91">
    <path d="M 208.824 48363.606123 
L 210.126 48363.606123 
L 210.126 182.342621 
L 208.824 182.342621 
z
" clip-path="url(#pd5274a88a0)" style="fill: #1f77b4"/>
   </g>
   <g id="patch_92">
    <path d="M 210.126 48363.606123 
L 211.428 48363.606123 
L 211.428 184.158581 
L 210.126 184.158581 
z
" clip-path="url(#pd5274a88a0)" style="fill: #1f77b4"/>
   </g>
   <g id="patch_93">
    <path d="M 211.428 48363.606123 
L 212.73 48363.606123 
L 212.73 184.954823 
L 211.428 184.954823 
z
" clip-path="url(#pd5274a88a0)" style="fill: #1f77b4"/>
   </g>
   <g id="patch_94">
    <path d="M 212.73 48363.606123 
L 214.032 48363.606123 
L 214.032 186.834122 
L 212.73 186.834122 
z
" clip-path="url(#pd5274a88a0)" style="fill: #1f77b4"/>
   </g>
   <g id="patch_95">
    <path d="M 214.032 48363.606123 
L 215.334 48363.606123 
L 215.334 187.741672 
L 214.032 187.741672 
z
" clip-path="url(#pd5274a88a0)" style="fill: #1f77b4"/>
   </g>
   <g id="patch_96">
    <path d="M 215.334 48363.606123 
L 216.636 48363.606123 
L 216.636 188.621267 
L 215.334 188.621267 
z
" clip-path="url(#pd5274a88a0)" style="fill: #1f77b4"/>
   </g>
   <g id="patch_97">
    <path d="M 216.636 48363.606123 
L 217.938 48363.606123 
L 217.938 189.252688 
L 216.636 189.252688 
z
" clip-path="url(#pd5274a88a0)" style="fill: #1f77b4"/>
   </g>
   <g id="patch_98">
    <path d="M 217.938 48363.606123 
L 219.24 48363.606123 
L 219.24 192.398761 
L 217.938 192.398761 
z
" clip-path="url(#pd5274a88a0)" style="fill: #1f77b4"/>
   </g>
   <g id="patch_99">
    <path d="M 219.24 48363.606123 
L 220.542 48363.606123 
L 220.542 194.214721 
L 219.24 194.214721 
z
" clip-path="url(#pd5274a88a0)" style="fill: #1f77b4"/>
   </g>
   <g id="patch_100">
    <path d="M 220.542 48363.606123 
L 221.844 48363.606123 
L 221.844 195.044116 
L 220.542 195.044116 
z
" clip-path="url(#pd5274a88a0)" style="fill: #1f77b4"/>
   </g>
   <g id="patch_101">
    <path d="M 221.844 48363.606123 
L 223.146 48363.606123 
L 223.146 196.706805 
L 221.844 196.706805 
z
" clip-path="url(#pd5274a88a0)" style="fill: #1f77b4"/>
   </g>
   <g id="patch_102">
    <path d="M 223.146 48363.606123 
L 224.448 48363.606123 
L 224.448 195.138339 
L 223.146 195.138339 
z
" clip-path="url(#pd5274a88a0)" style="fill: #1f77b4"/>
   </g>
   <g id="patch_103">
    <path d="M 224.448 48363.606123 
L 225.75 48363.606123 
L 225.75 194.48754 
L 224.448 194.48754 
z
" clip-path="url(#pd5274a88a0)" style="fill: #1f77b4"/>
   </g>
   <g id="patch_104">
    <path d="M 225.75 48363.606123 
L 227.052 48363.606123 
L 227.052 201.110916 
L 225.75 201.110916 
z
" clip-path="url(#pd5274a88a0)" style="fill: #1f77b4"/>
   </g>
   <g id="patch_105">
    <path d="M 227.052 48363.606123 
L 228.354 48363.606123 
L 228.354 197.750541 
L 227.052 197.750541 
z
" clip-path="url(#pd5274a88a0)" style="fill: #1f77b4"/>
   </g>
   <g id="patch_106">
    <path d="M 228.354 48363.606123 
L 229.656 48363.606123 
L 229.656 205.118171 
L 228.354 205.118171 
z
" clip-path="url(#pd5274a88a0)" style="fill: #1f77b4"/>
   </g>
   <g id="patch_107">
    <path d="M 229.656 48363.606123 
L 230.958 48363.606123 
L 230.958 204.223589 
L 229.656 204.223589 
z
" clip-path="url(#pd5274a88a0)" style="fill: #1f77b4"/>
   </g>
   <g id="patch_108">
    <path d="M 230.958 48363.606123 
L 232.26 48363.606123 
L 232.26 202.274272 
L 230.958 202.274272 
z
" clip-path="url(#pd5274a88a0)" style="fill: #1f77b4"/>
   </g>
   <g id="patch_109">
    <path d="M 232.26 48363.606123 
L 233.562 48363.606123 
L 233.562 202.407629 
L 232.26 202.407629 
z
" clip-path="url(#pd5274a88a0)" style="fill: #1f77b4"/>
   </g>
   <g id="patch_110">
    <path d="M 233.562 48363.606123 
L 234.864 48363.606123 
L 234.864 204.966385 
L 233.562 204.966385 
z
" clip-path="url(#pd5274a88a0)" style="fill: #1f77b4"/>
   </g>
   <g id="patch_111">
    <path d="M 234.864 48363.606123 
L 236.166 48363.606123 
L 236.166 208.057918 
L 234.864 208.057918 
z
" clip-path="url(#pd5274a88a0)" style="fill: #1f77b4"/>
   </g>
   <g id="patch_112">
    <path d="M 236.166 48363.606123 
L 237.468 48363.606123 
L 237.468 208.411661 
L 236.166 208.411661 
z
" clip-path="url(#pd5274a88a0)" style="fill: #1f77b4"/>
   </g>
   <g id="patch_113">
    <path d="M 237.468 48363.606123 
L 238.77 48363.606123 
L 238.77 207.198933 
L 237.468 207.198933 
z
" clip-path="url(#pd5274a88a0)" style="fill: #1f77b4"/>
   </g>
   <g id="patch_114">
    <path d="M 238.77 48363.606123 
L 240.072 48363.606123 
L 240.072 209.13766 
L 238.77 209.13766 
z
" clip-path="url(#pd5274a88a0)" style="fill: #1f77b4"/>
   </g>
   <g id="patch_115">
    <path d="M 240.072 48363.606123 
L 241.374 48363.606123 
L 241.374 211.2751 
L 240.072 211.2751 
z
" clip-path="url(#pd5274a88a0)" style="fill: #1f77b4"/>
   </g>
   <g id="patch_116">
    <path d="M 241.374 48363.606123 
L 242.676 48363.606123 
L 242.676 214.120492 
L 241.374 214.120492 
z
" clip-path="url(#pd5274a88a0)" style="fill: #1f77b4"/>
   </g>
   <g id="patch_117">
    <path d="M 242.676 48363.606123 
L 243.978 48363.606123 
L 243.978 212.110026 
L 242.676 212.110026 
z
" clip-path="url(#pd5274a88a0)" style="fill: #1f77b4"/>
   </g>
   <g id="patch_118">
    <path d="M 243.978 48363.606123 
L 245.28 48363.606123 
L 245.28 215.830133 
L 243.978 215.830133 
z
" clip-path="url(#pd5274a88a0)" style="fill: #1f77b4"/>
   </g>
   <g id="patch_119">
    <path d="M 245.28 48363.606123 
L 246.582 48363.606123 
L 246.582 216.608 
L 245.28 216.608 
z
" clip-path="url(#pd5274a88a0)" style="fill: #1f77b4"/>
   </g>
   <g id="patch_120">
    <path d="M 246.582 48363.606123 
L 247.884 48363.606123 
L 247.884 216.608 
L 246.582 216.608 
z
" clip-path="url(#pd5274a88a0)" style="fill: #1f77b4"/>
   </g>
   <g id="patch_121">
    <path d="M 247.884 48363.606123 
L 249.186 48363.606123 
L 249.186 221.331239 
L 247.884 221.331239 
z
" clip-path="url(#pd5274a88a0)" style="fill: #1f77b4"/>
   </g>
   <g id="patch_122">
    <path d="M 249.186 48363.606123 
L 250.488 48363.606123 
L 250.488 213.428593 
L 249.186 213.428593 
z
" clip-path="url(#pd5274a88a0)" style="fill: #1f77b4"/>
   </g>
   <g id="patch_123">
    <path d="M 250.488 48363.606123 
L 251.79 48363.606123 
L 251.79 219.432625 
L 250.488 219.432625 
z
" clip-path="url(#pd5274a88a0)" style="fill: #1f77b4"/>
   </g>
   <g id="patch_124">
    <path d="M 251.79 48363.606123 
L 253.092 48363.606123 
L 253.092 220.046503 
L 251.79 220.046503 
z
" clip-path="url(#pd5274a88a0)" style="fill: #1f77b4"/>
   </g>
   <g id="patch_125">
    <path d="M 253.092 48363.606123 
L 254.394 48363.606123 
L 254.394 217.972563 
L 253.092 217.972563 
z
" clip-path="url(#pd5274a88a0)" style="fill: #1f77b4"/>
   </g>
   <g id="patch_126">
    <path d="M 254.394 48363.606123 
L 255.696 48363.606123 
L 255.696 217.143167 
L 254.394 217.143167 
z
" clip-path="url(#pd5274a88a0)" style="fill: #1f77b4"/>
   </g>
   <g id="patch_127">
    <path d="M 255.696 48363.606123 
L 256.998 48363.606123 
L 256.998 221.331239 
L 255.696 221.331239 
z
" clip-path="url(#pd5274a88a0)" style="fill: #1f77b4"/>
   </g>
   <g id="patch_128">
    <path d="M 256.998 48363.606123 
L 258.3 48363.606123 
L 258.3 220.046503 
L 256.998 220.046503 
z
" clip-path="url(#pd5274a88a0)" style="fill: #1f77b4"/>
   </g>
   <g id="patch_129">
    <path d="M 258.3 48363.606123 
L 259.602 48363.606123 
L 259.602 223.789415 
L 258.3 223.789415 
z
" clip-path="url(#pd5274a88a0)" style="fill: #1f77b4"/>
   </g>
   <g id="patch_130">
    <path d="M 259.602 48363.606123 
L 260.904 48363.606123 
L 260.904 226.154627 
L 259.602 226.154627 
z
" clip-path="url(#pd5274a88a0)" style="fill: #1f77b4"/>
   </g>
   <g id="patch_131">
    <path d="M 260.904 48363.606123 
L 262.206 48363.606123 
L 262.206 226.154627 
L 260.904 226.154627 
z
" clip-path="url(#pd5274a88a0)" style="fill: #1f77b4"/>
   </g>
   <g id="patch_132">
    <path d="M 262.206 48363.606123 
L 263.508 48363.606123 
L 263.508 229.793447 
L 262.206 229.793447 
z
" clip-path="url(#pd5274a88a0)" style="fill: #1f77b4"/>
   </g>
   <g id="patch_133">
    <path d="M 263.508 48363.606123 
L 264.81 48363.606123 
L 264.81 226.576265 
L 263.508 226.576265 
z
" clip-path="url(#pd5274a88a0)" style="fill: #1f77b4"/>
   </g>
   <g id="patch_134">
    <path d="M 264.81 48363.606123 
L 266.112 48363.606123 
L 266.112 222.349508 
L 264.81 222.349508 
z
" clip-path="url(#pd5274a88a0)" style="fill: #1f77b4"/>
   </g>
   <g id="patch_135">
    <path d="M 266.112 48363.606123 
L 267.414 48363.606123 
L 267.414 225.741339 
L 266.112 225.741339 
z
" clip-path="url(#pd5274a88a0)" style="fill: #1f77b4"/>
   </g>
   <g id="patch_136">
    <path d="M 267.414 48363.606123 
L 268.716 48363.606123 
L 268.716 228.822557 
L 267.414 228.822557 
z
" clip-path="url(#pd5274a88a0)" style="fill: #1f77b4"/>
   </g>
   <g id="patch_137">
    <path d="M 268.716 48363.606123 
L 270.018 48363.606123 
L 270.018 226.576265 
L 268.716 226.576265 
z
" clip-path="url(#pd5274a88a0)" style="fill: #1f77b4"/>
   </g>
   <g id="patch_138">
    <path d="M 270.018 48363.606123 
L 271.32 48363.606123 
L 271.32 227.006597 
L 270.018 227.006597 
z
" clip-path="url(#pd5274a88a0)" style="fill: #1f77b4"/>
   </g>
   <g id="patch_139">
    <path d="M 271.32 48363.606123 
L 272.622 48363.606123 
L 272.622 229.793447 
L 271.32 229.793447 
z
" clip-path="url(#pd5274a88a0)" style="fill: #1f77b4"/>
   </g>
   <g id="patch_140">
    <path d="M 272.622 48363.606123 
L 273.924 48363.606123 
L 273.924 228.35354 
L 272.622 228.35354 
z
" clip-path="url(#pd5274a88a0)" style="fill: #1f77b4"/>
   </g>
   <g id="patch_141">
    <path d="M 273.924 48363.606123 
L 275.226 48363.606123 
L 275.226 224.548421 
L 273.924 224.548421 
z
" clip-path="url(#pd5274a88a0)" style="fill: #1f77b4"/>
   </g>
   <g id="patch_142">
    <path d="M 275.226 48363.606123 
L 276.528 48363.606123 
L 276.528 231.340108 
L 275.226 231.340108 
z
" clip-path="url(#pd5274a88a0)" style="fill: #1f77b4"/>
   </g>
   <g id="patch_143">
    <path d="M 276.528 48363.606123 
L 277.83 48363.606123 
L 277.83 234.203546 
L 276.528 234.203546 
z
" clip-path="url(#pd5274a88a0)" style="fill: #1f77b4"/>
   </g>
   <g id="patch_144">
    <path d="M 277.83 48363.606123 
L 279.132 48363.606123 
L 279.132 229.793447 
L 277.83 229.793447 
z
" clip-path="url(#pd5274a88a0)" style="fill: #1f77b4"/>
   </g>
   <g id="patch_145">
    <path d="M 279.132 48363.606123 
L 280.434 48363.606123 
L 280.434 230.811716 
L 279.132 230.811716 
z
" clip-path="url(#pd5274a88a0)" style="fill: #1f77b4"/>
   </g>
   <g id="patch_146">
    <path d="M 280.434 48363.606123 
L 281.736 48363.606123 
L 281.736 234.203546 
L 280.434 234.203546 
z
" clip-path="url(#pd5274a88a0)" style="fill: #1f77b4"/>
   </g>
   <g id="patch_147">
    <path d="M 281.736 48363.606123 
L 283.038 48363.606123 
L 283.038 236.815747 
L 281.736 236.815747 
z
" clip-path="url(#pd5274a88a0)" style="fill: #1f77b4"/>
   </g>
   <g id="patch_148">
    <path d="M 283.038 48363.606123 
L 284.34 48363.606123 
L 284.34 231.882226 
L 283.038 231.882226 
z
" clip-path="url(#pd5274a88a0)" style="fill: #1f77b4"/>
   </g>
   <g id="patch_149">
    <path d="M 284.34 48363.606123 
L 285.642 48363.606123 
L 285.642 231.340108 
L 284.34 231.340108 
z
" clip-path="url(#pd5274a88a0)" style="fill: #1f77b4"/>
   </g>
   <g id="patch_150">
    <path d="M 285.642 48363.606123 
L 286.944 48363.606123 
L 286.944 236.131412 
L 285.642 236.131412 
z
" clip-path="url(#pd5274a88a0)" style="fill: #1f77b4"/>
   </g>
   <g id="patch_151">
    <path d="M 286.944 48363.606123 
L 288.246 48363.606123 
L 288.246 236.815747 
L 286.944 236.815747 
z
" clip-path="url(#pd5274a88a0)" style="fill: #1f77b4"/>
   </g>
   <g id="patch_152">
    <path d="M 288.246 48363.606123 
L 289.548 48363.606123 
L 289.548 235.468804 
L 288.246 235.468804 
z
" clip-path="url(#pd5274a88a0)" style="fill: #1f77b4"/>
   </g>
   <g id="patch_153">
    <path d="M 289.548 48363.606123 
L 290.85 48363.606123 
L 290.85 237.523285 
L 289.548 237.523285 
z
" clip-path="url(#pd5274a88a0)" style="fill: #1f77b4"/>
   </g>
   <g id="patch_154">
    <path d="M 290.85 48363.606123 
L 292.152 48363.606123 
L 292.152 233.010629 
L 290.85 233.010629 
z
" clip-path="url(#pd5274a88a0)" style="fill: #1f77b4"/>
   </g>
   <g id="patch_155">
    <path d="M 292.152 48363.606123 
L 293.454 48363.606123 
L 293.454 234.203546 
L 292.152 234.203546 
z
" clip-path="url(#pd5274a88a0)" style="fill: #1f77b4"/>
   </g>
   <g id="patch_156">
    <path d="M 293.454 48363.606123 
L 294.756 48363.606123 
L 294.756 242.361071 
L 293.454 242.361071 
z
" clip-path="url(#pd5274a88a0)" style="fill: #1f77b4"/>
   </g>
   <g id="patch_157">
    <path d="M 294.756 48363.606123 
L 296.058 48363.606123 
L 296.058 230.811716 
L 294.756 230.811716 
z
" clip-path="url(#pd5274a88a0)" style="fill: #1f77b4"/>
   </g>
   <g id="patch_158">
    <path d="M 296.058 48363.606123 
L 297.36 48363.606123 
L 297.36 234.203546 
L 296.058 234.203546 
z
" clip-path="url(#pd5274a88a0)" style="fill: #1f77b4"/>
   </g>
   <g id="patch_159">
    <path d="M 297.36 48363.606123 
L 298.662 48363.606123 
L 298.662 231.340108 
L 297.36 231.340108 
z
" clip-path="url(#pd5274a88a0)" style="fill: #1f77b4"/>
   </g>
   <g id="patch_160">
    <path d="M 298.662 48363.606123 
L 299.964 48363.606123 
L 299.964 234.826589 
L 298.662 234.826589 
z
" clip-path="url(#pd5274a88a0)" style="fill: #1f77b4"/>
   </g>
   <g id="patch_161">
    <path d="M 299.964 48363.606123 
L 301.266 48363.606123 
L 301.266 229.793447 
L 299.964 229.793447 
z
" clip-path="url(#pd5274a88a0)" style="fill: #1f77b4"/>
   </g>
   <g id="patch_162">
    <path d="M 301.266 48363.606123 
L 302.568 48363.606123 
L 302.568 236.815747 
L 301.266 236.815747 
z
" clip-path="url(#pd5274a88a0)" style="fill: #1f77b4"/>
   </g>
   <g id="patch_163">
    <path d="M 302.568 48363.606123 
L 303.87 48363.606123 
L 303.87 230.811716 
L 302.568 230.811716 
z
" clip-path="url(#pd5274a88a0)" style="fill: #1f77b4"/>
   </g>
   <g id="patch_164">
    <path d="M 303.87 48363.606123 
L 305.172 48363.606123 
L 305.172 234.203546 
L 303.87 234.203546 
z
" clip-path="url(#pd5274a88a0)" style="fill: #1f77b4"/>
   </g>
   <g id="patch_165">
    <path d="M 305.172 48363.606123 
L 306.474 48363.606123 
L 306.474 233.010629 
L 305.172 233.010629 
z
" clip-path="url(#pd5274a88a0)" style="fill: #1f77b4"/>
   </g>
   <g id="patch_166">
    <path d="M 306.474 48363.606123 
L 307.776 48363.606123 
L 307.776 234.826589 
L 306.474 234.826589 
z
" clip-path="url(#pd5274a88a0)" style="fill: #1f77b4"/>
   </g>
   <g id="patch_167">
    <path d="M 307.776 48363.606123 
L 309.078 48363.606123 
L 309.078 236.815747 
L 307.776 236.815747 
z
" clip-path="url(#pd5274a88a0)" style="fill: #1f77b4"/>
   </g>
   <g id="patch_168">
    <path d="M 309.078 48363.606123 
L 310.38 48363.606123 
L 310.38 239.01466 
L 309.078 239.01466 
z
" clip-path="url(#pd5274a88a0)" style="fill: #1f77b4"/>
   </g>
   <g id="patch_169">
    <path d="M 310.38 48363.606123 
L 311.682 48363.606123 
L 311.682 229.302357 
L 310.38 229.302357 
z
" clip-path="url(#pd5274a88a0)" style="fill: #1f77b4"/>
   </g>
   <g id="patch_170">
    <path d="M 311.682 48363.606123 
L 312.984 48363.606123 
L 312.984 231.340108 
L 311.682 231.340108 
z
" clip-path="url(#pd5274a88a0)" style="fill: #1f77b4"/>
   </g>
   <g id="patch_171">
    <path d="M 312.984 48363.606123 
L 314.286 48363.606123 
L 314.286 231.882226 
L 312.984 231.882226 
z
" clip-path="url(#pd5274a88a0)" style="fill: #1f77b4"/>
   </g>
   <g id="patch_172">
    <path d="M 314.286 48363.606123 
L 315.588 48363.606123 
L 315.588 236.815747 
L 314.286 236.815747 
z
" clip-path="url(#pd5274a88a0)" style="fill: #1f77b4"/>
   </g>
   <g id="patch_173">
    <path d="M 315.588 48363.606123 
L 316.89 48363.606123 
L 316.89 233.010629 
L 315.588 233.010629 
z
" clip-path="url(#pd5274a88a0)" style="fill: #1f77b4"/>
   </g>
   <g id="patch_174">
    <path d="M 316.89 48363.606123 
L 318.192 48363.606123 
L 318.192 236.131412 
L 316.89 236.131412 
z
" clip-path="url(#pd5274a88a0)" style="fill: #1f77b4"/>
   </g>
   <g id="patch_175">
    <path d="M 318.192 48363.606123 
L 319.494 48363.606123 
L 319.494 239.802315 
L 318.192 239.802315 
z
" clip-path="url(#pd5274a88a0)" style="fill: #1f77b4"/>
   </g>
   <g id="patch_176">
    <path d="M 319.494 48363.606123 
L 320.796 48363.606123 
L 320.796 230.296372 
L 319.494 230.296372 
z
" clip-path="url(#pd5274a88a0)" style="fill: #1f77b4"/>
   </g>
   <g id="patch_177">
    <path d="M 320.796 48363.606123 
L 322.098 48363.606123 
L 322.098 237.523285 
L 320.796 237.523285 
z
" clip-path="url(#pd5274a88a0)" style="fill: #1f77b4"/>
   </g>
   <g id="patch_178">
    <path d="M 322.098 48363.606123 
L 323.4 48363.606123 
L 323.4 232.438802 
L 322.098 232.438802 
z
" clip-path="url(#pd5274a88a0)" style="fill: #1f77b4"/>
   </g>
   <g id="patch_179">
    <path d="M 323.4 48363.606123 
L 324.702 48363.606123 
L 324.702 230.296372 
L 323.4 230.296372 
z
" clip-path="url(#pd5274a88a0)" style="fill: #1f77b4"/>
   </g>
   <g id="patch_180">
    <path d="M 324.702 48363.606123 
L 326.004 48363.606123 
L 326.004 231.340108 
L 324.702 231.340108 
z
" clip-path="url(#pd5274a88a0)" style="fill: #1f77b4"/>
   </g>
   <g id="patch_181">
    <path d="M 326.004 48363.606123 
L 327.306 48363.606123 
L 327.306 229.302357 
L 326.004 229.302357 
z
" clip-path="url(#pd5274a88a0)" style="fill: #1f77b4"/>
   </g>
   <g id="patch_182">
    <path d="M 327.306 48363.606123 
L 328.608 48363.606123 
L 328.608 236.815747 
L 327.306 236.815747 
z
" clip-path="url(#pd5274a88a0)" style="fill: #1f77b4"/>
   </g>
   <g id="patch_183">
    <path d="M 328.608 48363.606123 
L 329.91 48363.606123 
L 329.91 234.203546 
L 328.608 234.203546 
z
" clip-path="url(#pd5274a88a0)" style="fill: #1f77b4"/>
   </g>
   <g id="patch_184">
    <path d="M 329.91 48363.606123 
L 331.212 48363.606123 
L 331.212 229.302357 
L 329.91 229.302357 
z
" clip-path="url(#pd5274a88a0)" style="fill: #1f77b4"/>
   </g>
   <g id="patch_185">
    <path d="M 331.212 48363.606123 
L 332.514 48363.606123 
L 332.514 229.793447 
L 331.212 229.793447 
z
" clip-path="url(#pd5274a88a0)" style="fill: #1f77b4"/>
   </g>
   <g id="patch_186">
    <path d="M 332.514 48363.606123 
L 333.816 48363.606123 
L 333.816 234.826589 
L 332.514 234.826589 
z
" clip-path="url(#pd5274a88a0)" style="fill: #1f77b4"/>
   </g>
   <g id="patch_187">
    <path d="M 333.816 48363.606123 
L 335.118 48363.606123 
L 335.118 234.826589 
L 333.816 234.826589 
z
" clip-path="url(#pd5274a88a0)" style="fill: #1f77b4"/>
   </g>
   <g id="patch_188">
    <path d="M 335.118 48363.606123 
L 336.42 48363.606123 
L 336.42 233.010629 
L 335.118 233.010629 
z
" clip-path="url(#pd5274a88a0)" style="fill: #1f77b4"/>
   </g>
   <g id="patch_189">
    <path d="M 336.42 48363.606123 
L 337.722 48363.606123 
L 337.722 234.826589 
L 336.42 234.826589 
z
" clip-path="url(#pd5274a88a0)" style="fill: #1f77b4"/>
   </g>
   <g id="patch_190">
    <path d="M 337.722 48363.606123 
L 339.024 48363.606123 
L 339.024 233.598565 
L 337.722 233.598565 
z
" clip-path="url(#pd5274a88a0)" style="fill: #1f77b4"/>
   </g>
   <g id="patch_191">
    <path d="M 339.024 48363.606123 
L 340.326 48363.606123 
L 340.326 233.010629 
L 339.024 233.010629 
z
" clip-path="url(#pd5274a88a0)" style="fill: #1f77b4"/>
   </g>
   <g id="patch_192">
    <path d="M 340.326 48363.606123 
L 341.628 48363.606123 
L 341.628 233.598565 
L 340.326 233.598565 
z
" clip-path="url(#pd5274a88a0)" style="fill: #1f77b4"/>
   </g>
   <g id="patch_193">
    <path d="M 341.628 48363.606123 
L 342.93 48363.606123 
L 342.93 236.815747 
L 341.628 236.815747 
z
" clip-path="url(#pd5274a88a0)" style="fill: #1f77b4"/>
   </g>
   <g id="patch_194">
    <path d="M 342.93 48363.606123 
L 344.232 48363.606123 
L 344.232 239.802315 
L 342.93 239.802315 
z
" clip-path="url(#pd5274a88a0)" style="fill: #1f77b4"/>
   </g>
   <g id="patch_195">
    <path d="M 344.232 48363.606123 
L 345.534 48363.606123 
L 345.534 238.255654 
L 344.232 238.255654 
z
" clip-path="url(#pd5274a88a0)" style="fill: #1f77b4"/>
   </g>
   <g id="patch_196">
    <path d="M 345.534 48363.606123 
L 346.836 48363.606123 
L 346.836 246.348465 
L 345.534 246.348465 
z
" clip-path="url(#pd5274a88a0)" style="fill: #1f77b4"/>
   </g>
   <g id="patch_197">
    <path d="M 346.836 48363.606123 
L 348.138 48363.606123 
L 348.138 257.755035 
L 346.836 257.755035 
z
" clip-path="url(#pd5274a88a0)" style="fill: #1f77b4"/>
   </g>
   <g id="patch_198">
    <path d="M 348.138 48363.606123 
L 349.44 48363.606123 
L 349.44 249.935044 
L 348.138 249.935044 
z
" clip-path="url(#pd5274a88a0)" style="fill: #1f77b4"/>
   </g>
   <g id="patch_199">
    <path d="M 349.44 48363.606123 
L 350.742 48363.606123 
L 350.742 243.288796 
L 349.44 243.288796 
z
" clip-path="url(#pd5274a88a0)" style="fill: #1f77b4"/>
   </g>
   <g id="patch_200">
    <path d="M 350.742 48363.606123 
L 352.044 48363.606123 
L 352.044 237.523285 
L 350.742 237.523285 
z
" clip-path="url(#pd5274a88a0)" style="fill: #1f77b4"/>
   </g>
   <g id="patch_201">
    <path d="M 352.044 48363.606123 
L 353.346 48363.606123 
L 353.346 244.259686 
L 352.044 244.259686 
z
" clip-path="url(#pd5274a88a0)" style="fill: #1f77b4"/>
   </g>
   <g id="patch_202">
    <path d="M 353.346 48363.606123 
L 354.648 48363.606123 
L 354.648 247.476868 
L 353.346 247.476868 
z
" clip-path="url(#pd5274a88a0)" style="fill: #1f77b4"/>
   </g>
   <g id="patch_203">
    <path d="M 354.648 48363.606123 
L 355.95 48363.606123 
L 355.95 245.277955 
L 354.648 245.277955 
z
" clip-path="url(#pd5274a88a0)" style="fill: #1f77b4"/>
   </g>
   <g id="patch_204">
    <path d="M 355.95 48363.606123 
L 357.252 48363.606123 
L 357.252 248.669785 
L 355.95 248.669785 
z
" clip-path="url(#pd5274a88a0)" style="fill: #1f77b4"/>
   </g>
   <g id="patch_205">
    <path d="M 357.252 48363.606123 
L 358.554 48363.606123 
L 358.554 255.939075 
L 357.252 255.939075 
z
" clip-path="url(#pd5274a88a0)" style="fill: #1f77b4"/>
   </g>
   <g id="patch_206">
    <path d="M 358.554 48363.606123 
L 359.856 48363.606123 
L 359.856 254.268554 
L 358.554 254.268554 
z
" clip-path="url(#pd5274a88a0)" style="fill: #1f77b4"/>
   </g>
   <g id="patch_207">
    <path d="M 359.856 48363.606123 
L 361.158 48363.606123 
L 361.158 246.348465 
L 359.856 246.348465 
z
" clip-path="url(#pd5274a88a0)" style="fill: #1f77b4"/>
   </g>
   <g id="patch_208">
    <path d="M 361.158 48363.606123 
L 362.46 48363.606123 
L 362.46 252.721893 
L 361.158 252.721893 
z
" clip-path="url(#pd5274a88a0)" style="fill: #1f77b4"/>
   </g>
   <g id="patch_209">
    <path d="M 362.46 48363.606123 
L 363.762 48363.606123 
L 363.762 261.943107 
L 362.46 261.943107 
z
" clip-path="url(#pd5274a88a0)" style="fill: #1f77b4"/>
   </g>
   <g id="patch_210">
    <path d="M 363.762 48363.606123 
L 365.064 48363.606123 
L 365.064 251.281986 
L 363.762 251.281986 
z
" clip-path="url(#pd5274a88a0)" style="fill: #1f77b4"/>
   </g>
   <g id="patch_211">
    <path d="M 365.064 48363.606123 
L 366.366 48363.606123 
L 366.366 278.867522 
L 365.064 278.867522 
z
" clip-path="url(#pd5274a88a0)" style="fill: #1f77b4"/>
   </g>
   <g id="patch_212">
    <path d="M 366.366 48363.606123 
L 367.668 48363.606123 
L 367.668 259.744194 
L 366.366 259.744194 
z
" clip-path="url(#pd5274a88a0)" style="fill: #1f77b4"/>
   </g>
   <g id="patch_213">
    <path d="M 367.668 48363.606123 
L 368.97 48363.606123 
L 368.97 274.210433 
L 367.668 274.210433 
z
" clip-path="url(#pd5274a88a0)" style="fill: #1f77b4"/>
   </g>
   <g id="patch_214">
    <path d="M 368.97 48363.606123 
L 370.272 48363.606123 
L 370.272 278.867522 
L 368.97 278.867522 
z
" clip-path="url(#pd5274a88a0)" style="fill: #1f77b4"/>
   </g>
   <g id="patch_215">
    <path d="M 370.272 48363.606123 
L 371.574 48363.606123 
L 371.574 264.401283 
L 370.272 264.401283 
z
" clip-path="url(#pd5274a88a0)" style="fill: #1f77b4"/>
   </g>
   <g id="patch_216">
    <path d="M 371.574 48363.606123 
L 372.876 48363.606123 
L 372.876 270.405314 
L 371.574 270.405314 
z
" clip-path="url(#pd5274a88a0)" style="fill: #1f77b4"/>
   </g>
   <g id="patch_217">
    <path d="M 372.876 48363.606123 
L 374.178 48363.606123 
L 374.178 264.401283 
L 372.876 264.401283 
z
" clip-path="url(#pd5274a88a0)" style="fill: #1f77b4"/>
   </g>
   <g id="patch_218">
    <path d="M 374.178 48363.606123 
L 375.48 48363.606123 
L 375.48 284.871553 
L 374.178 284.871553 
z
" clip-path="url(#pd5274a88a0)" style="fill: #1f77b4"/>
   </g>
   <g id="patch_219">
    <path d="M 375.48 48363.606123 
L 376.782 48363.606123 
L 376.782 261.943107 
L 375.48 261.943107 
z
" clip-path="url(#pd5274a88a0)" style="fill: #1f77b4"/>
   </g>
   <g id="patch_220">
    <path d="M 376.782 48363.606123 
L 378.084 48363.606123 
L 378.084 254.268554 
L 376.782 254.268554 
z
" clip-path="url(#pd5274a88a0)" style="fill: #1f77b4"/>
   </g>
   <g id="patch_221">
    <path d="M 378.084 48363.606123 
L 379.386 48363.606123 
L 379.386 278.867522 
L 378.084 278.867522 
z
" clip-path="url(#pd5274a88a0)" style="fill: #1f77b4"/>
   </g>
   <g id="patch_222">
    <path d="M 379.386 48363.606123 
L 380.688 48363.606123 
L 380.688 274.210433 
L 379.386 274.210433 
z
" clip-path="url(#pd5274a88a0)" style="fill: #1f77b4"/>
   </g>
   <g id="patch_223">
    <path d="M 380.688 48363.606123 
L 381.99 48363.606123 
L 381.99 48363.606123 
L 380.688 48363.606123 
z
" clip-path="url(#pd5274a88a0)" style="fill: #1f77b4"/>
   </g>
   <g id="patch_224">
    <path d="M 381.99 48363.606123 
L 383.292 48363.606123 
L 383.292 307.8 
L 381.99 307.8 
z
" clip-path="url(#pd5274a88a0)" style="fill: #1f77b4"/>
   </g>
   <g id="patch_225">
    <path d="M 383.292 48363.606123 
L 384.594 48363.606123 
L 384.594 284.871553 
L 383.292 284.871553 
z
" clip-path="url(#pd5274a88a0)" style="fill: #1f77b4"/>
   </g>
   <g id="patch_226">
    <path d="M 384.594 48363.606123 
L 385.896 48363.606123 
L 385.896 307.8 
L 384.594 307.8 
z
" clip-path="url(#pd5274a88a0)" style="fill: #1f77b4"/>
   </g>
   <g id="patch_227">
    <path d="M 385.896 48363.606123 
L 387.198 48363.606123 
L 387.198 274.210433 
L 385.896 274.210433 
z
" clip-path="url(#pd5274a88a0)" style="fill: #1f77b4"/>
   </g>
   <g id="patch_228">
    <path d="M 387.198 48363.606123 
L 388.5 48363.606123 
L 388.5 278.867522 
L 387.198 278.867522 
z
" clip-path="url(#pd5274a88a0)" style="fill: #1f77b4"/>
   </g>
   <g id="patch_229">
    <path d="M 388.5 48363.606123 
L 389.802 48363.606123 
L 389.802 307.8 
L 388.5 307.8 
z
" clip-path="url(#pd5274a88a0)" style="fill: #1f77b4"/>
   </g>
   <g id="patch_230">
    <path d="M 389.802 48363.606123 
L 391.104 48363.606123 
L 391.104 293.333761 
L 389.802 293.333761 
z
" clip-path="url(#pd5274a88a0)" style="fill: #1f77b4"/>
   </g>
   <g id="patch_231">
    <path d="M 391.104 48363.606123 
L 392.406 48363.606123 
L 392.406 307.8 
L 391.104 307.8 
z
" clip-path="url(#pd5274a88a0)" style="fill: #1f77b4"/>
   </g>
   <g id="patch_232">
    <path d="M 392.406 48363.606123 
L 393.708 48363.606123 
L 393.708 284.871553 
L 392.406 284.871553 
z
" clip-path="url(#pd5274a88a0)" style="fill: #1f77b4"/>
   </g>
   <g id="patch_233">
    <path d="M 393.708 48363.606123 
L 395.01 48363.606123 
L 395.01 293.333761 
L 393.708 293.333761 
z
" clip-path="url(#pd5274a88a0)" style="fill: #1f77b4"/>
   </g>
   <g id="patch_234">
    <path d="M 395.01 48363.606123 
L 396.312 48363.606123 
L 396.312 293.333761 
L 395.01 293.333761 
z
" clip-path="url(#pd5274a88a0)" style="fill: #1f77b4"/>
   </g>
   <g id="patch_235">
    <path d="M 396.312 48363.606123 
L 397.614 48363.606123 
L 397.614 284.871553 
L 396.312 284.871553 
z
" clip-path="url(#pd5274a88a0)" style="fill: #1f77b4"/>
   </g>
   <g id="patch_236">
    <path d="M 397.614 48363.606123 
L 398.916 48363.606123 
L 398.916 293.333761 
L 397.614 293.333761 
z
" clip-path="url(#pd5274a88a0)" style="fill: #1f77b4"/>
   </g>
   <g id="patch_237">
    <path d="M 398.916 48363.606123 
L 400.218 48363.606123 
L 400.218 307.8 
L 398.916 307.8 
z
" clip-path="url(#pd5274a88a0)" style="fill: #1f77b4"/>
   </g>
   <g id="patch_238">
    <path d="M 400.218 48363.606123 
L 401.52 48363.606123 
L 401.52 48363.606123 
L 400.218 48363.606123 
z
" clip-path="url(#pd5274a88a0)" style="fill: #1f77b4"/>
   </g>
   <g id="patch_239">
    <path d="M 401.52 48363.606123 
L 402.822 48363.606123 
L 402.822 48363.606123 
L 401.52 48363.606123 
z
" clip-path="url(#pd5274a88a0)" style="fill: #1f77b4"/>
   </g>
   <g id="patch_240">
    <path d="M 402.822 48363.606123 
L 404.124 48363.606123 
L 404.124 48363.606123 
L 402.822 48363.606123 
z
" clip-path="url(#pd5274a88a0)" style="fill: #1f77b4"/>
   </g>
   <g id="patch_241">
    <path d="M 404.124 48363.606123 
L 405.426 48363.606123 
L 405.426 48363.606123 
L 404.124 48363.606123 
z
" clip-path="url(#pd5274a88a0)" style="fill: #1f77b4"/>
   </g>
   <g id="patch_242">
    <path d="M 405.426 48363.606123 
L 406.728 48363.606123 
L 406.728 48363.606123 
L 405.426 48363.606123 
z
" clip-path="url(#pd5274a88a0)" style="fill: #1f77b4"/>
   </g>
   <g id="patch_243">
    <path d="M 406.728 48363.606123 
L 408.03 48363.606123 
L 408.03 48363.606123 
L 406.728 48363.606123 
z
" clip-path="url(#pd5274a88a0)" style="fill: #1f77b4"/>
   </g>
   <g id="patch_244">
    <path d="M 408.03 48363.606123 
L 409.332 48363.606123 
L 409.332 307.8 
L 408.03 307.8 
z
" clip-path="url(#pd5274a88a0)" style="fill: #1f77b4"/>
   </g>
   <g id="patch_245">
    <path d="M 409.332 48363.606123 
L 410.634 48363.606123 
L 410.634 48363.606123 
L 409.332 48363.606123 
z
" clip-path="url(#pd5274a88a0)" style="fill: #1f77b4"/>
   </g>
   <g id="patch_246">
    <path d="M 410.634 48363.606123 
L 411.936 48363.606123 
L 411.936 307.8 
L 410.634 307.8 
z
" clip-path="url(#pd5274a88a0)" style="fill: #1f77b4"/>
   </g>
   <g id="patch_247">
    <path d="M 411.936 48363.606123 
L 413.238 48363.606123 
L 413.238 307.8 
L 411.936 307.8 
z
" clip-path="url(#pd5274a88a0)" style="fill: #1f77b4"/>
   </g>
   <g id="patch_248">
    <path d="M 413.238 48363.606123 
L 414.54 48363.606123 
L 414.54 48363.606123 
L 413.238 48363.606123 
z
" clip-path="url(#pd5274a88a0)" style="fill: #1f77b4"/>
   </g>
   <g id="patch_249">
    <path d="M 414.54 48363.606123 
L 415.842 48363.606123 
L 415.842 48363.606123 
L 414.54 48363.606123 
z
" clip-path="url(#pd5274a88a0)" style="fill: #1f77b4"/>
   </g>
   <g id="patch_250">
    <path d="M 415.842 48363.606123 
L 417.144 48363.606123 
L 417.144 307.8 
L 415.842 307.8 
z
" clip-path="url(#pd5274a88a0)" style="fill: #1f77b4"/>
   </g>
   <g id="patch_251">
    <path d="M 417.144 48363.606123 
L 418.446 48363.606123 
L 418.446 48363.606123 
L 417.144 48363.606123 
z
" clip-path="url(#pd5274a88a0)" style="fill: #1f77b4"/>
   </g>
   <g id="patch_252">
    <path d="M 418.446 48363.606123 
L 419.748 48363.606123 
L 419.748 48363.606123 
L 418.446 48363.606123 
z
" clip-path="url(#pd5274a88a0)" style="fill: #1f77b4"/>
   </g>
   <g id="patch_253">
    <path d="M 419.748 48363.606123 
L 421.05 48363.606123 
L 421.05 48363.606123 
L 419.748 48363.606123 
z
" clip-path="url(#pd5274a88a0)" style="fill: #1f77b4"/>
   </g>
   <g id="patch_254">
    <path d="M 421.05 48363.606123 
L 422.352 48363.606123 
L 422.352 48363.606123 
L 421.05 48363.606123 
z
" clip-path="url(#pd5274a88a0)" style="fill: #1f77b4"/>
   </g>
   <g id="patch_255">
    <path d="M 422.352 48363.606123 
L 423.654 48363.606123 
L 423.654 48363.606123 
L 422.352 48363.606123 
z
" clip-path="url(#pd5274a88a0)" style="fill: #1f77b4"/>
   </g>
   <g id="patch_256">
    <path d="M 423.654 48363.606123 
L 424.956 48363.606123 
L 424.956 48363.606123 
L 423.654 48363.606123 
z
" clip-path="url(#pd5274a88a0)" style="fill: #1f77b4"/>
   </g>
   <g id="patch_257">
    <path d="M 424.956 48363.606123 
L 426.258 48363.606123 
L 426.258 48363.606123 
L 424.956 48363.606123 
z
" clip-path="url(#pd5274a88a0)" style="fill: #1f77b4"/>
   </g>
   <g id="patch_258">
    <path d="M 426.258 48363.606123 
L 427.56 48363.606123 
L 427.56 48363.606123 
L 426.258 48363.606123 
z
" clip-path="url(#pd5274a88a0)" style="fill: #1f77b4"/>
   </g>
   <g id="patch_259">
    <path d="M 427.56 48363.606123 
L 428.862 48363.606123 
L 428.862 307.8 
L 427.56 307.8 
z
" clip-path="url(#pd5274a88a0)" style="fill: #1f77b4"/>
   </g>
   <g id="patch_260">
    <path d="M 428.862 48363.606123 
L 430.164 48363.606123 
L 430.164 48363.606123 
L 428.862 48363.606123 
z
" clip-path="url(#pd5274a88a0)" style="fill: #1f77b4"/>
   </g>
   <g id="patch_261">
    <path d="M 430.164 48363.606123 
L 431.466 48363.606123 
L 431.466 48363.606123 
L 430.164 48363.606123 
z
" clip-path="url(#pd5274a88a0)" style="fill: #1f77b4"/>
   </g>
   <g id="patch_262">
    <path d="M 431.466 48363.606123 
L 432.768 48363.606123 
L 432.768 48363.606123 
L 431.466 48363.606123 
z
" clip-path="url(#pd5274a88a0)" style="fill: #1f77b4"/>
   </g>
   <g id="patch_263">
    <path d="M 432.768 48363.606123 
L 434.07 48363.606123 
L 434.07 48363.606123 
L 432.768 48363.606123 
z
" clip-path="url(#pd5274a88a0)" style="fill: #1f77b4"/>
   </g>
   <g id="patch_264">
    <path d="M 434.07 48363.606123 
L 435.372 48363.606123 
L 435.372 48363.606123 
L 434.07 48363.606123 
z
" clip-path="url(#pd5274a88a0)" style="fill: #1f77b4"/>
   </g>
   <g id="patch_265">
    <path d="M 435.372 48363.606123 
L 436.674 48363.606123 
L 436.674 48363.606123 
L 435.372 48363.606123 
z
" clip-path="url(#pd5274a88a0)" style="fill: #1f77b4"/>
   </g>
   <g id="patch_266">
    <path d="M 436.674 48363.606123 
L 437.976 48363.606123 
L 437.976 48363.606123 
L 436.674 48363.606123 
z
" clip-path="url(#pd5274a88a0)" style="fill: #1f77b4"/>
   </g>
   <g id="patch_267">
    <path d="M 437.976 48363.606123 
L 439.278 48363.606123 
L 439.278 48363.606123 
L 437.976 48363.606123 
z
" clip-path="url(#pd5274a88a0)" style="fill: #1f77b4"/>
   </g>
   <g id="patch_268">
    <path d="M 439.278 48363.606123 
L 440.58 48363.606123 
L 440.58 48363.606123 
L 439.278 48363.606123 
z
" clip-path="url(#pd5274a88a0)" style="fill: #1f77b4"/>
   </g>
   <g id="patch_269">
    <path d="M 440.58 48363.606123 
L 441.882 48363.606123 
L 441.882 307.8 
L 440.58 307.8 
z
" clip-path="url(#pd5274a88a0)" style="fill: #1f77b4"/>
   </g>
   <g id="patch_270">
    <path d="M 441.882 48363.606123 
L 443.184 48363.606123 
L 443.184 48363.606123 
L 441.882 48363.606123 
z
" clip-path="url(#pd5274a88a0)" style="fill: #1f77b4"/>
   </g>
   <g id="patch_271">
    <path d="M 443.184 48363.606123 
L 444.486 48363.606123 
L 444.486 48363.606123 
L 443.184 48363.606123 
z
" clip-path="url(#pd5274a88a0)" style="fill: #1f77b4"/>
   </g>
   <g id="patch_272">
    <path d="M 444.486 48363.606123 
L 445.788 48363.606123 
L 445.788 48363.606123 
L 444.486 48363.606123 
z
" clip-path="url(#pd5274a88a0)" style="fill: #1f77b4"/>
   </g>
   <g id="patch_273">
    <path d="M 445.788 48363.606123 
L 447.09 48363.606123 
L 447.09 48363.606123 
L 445.788 48363.606123 
z
" clip-path="url(#pd5274a88a0)" style="fill: #1f77b4"/>
   </g>
   <g id="patch_274">
    <path d="M 447.09 48363.606123 
L 448.392 48363.606123 
L 448.392 48363.606123 
L 447.09 48363.606123 
z
" clip-path="url(#pd5274a88a0)" style="fill: #1f77b4"/>
   </g>
   <g id="patch_275">
    <path d="M 448.392 48363.606123 
L 449.694 48363.606123 
L 449.694 48363.606123 
L 448.392 48363.606123 
z
" clip-path="url(#pd5274a88a0)" style="fill: #1f77b4"/>
   </g>
   <g id="patch_276">
    <path d="M 449.694 48363.606123 
L 450.996 48363.606123 
L 450.996 48363.606123 
L 449.694 48363.606123 
z
" clip-path="url(#pd5274a88a0)" style="fill: #1f77b4"/>
   </g>
   <g id="patch_277">
    <path d="M 450.996 48363.606123 
L 452.298 48363.606123 
L 452.298 48363.606123 
L 450.996 48363.606123 
z
" clip-path="url(#pd5274a88a0)" style="fill: #1f77b4"/>
   </g>
   <g id="patch_278">
    <path d="M 452.298 48363.606123 
L 453.6 48363.606123 
L 453.6 48363.606123 
L 452.298 48363.606123 
z
" clip-path="url(#pd5274a88a0)" style="fill: #1f77b4"/>
   </g>
   <g id="patch_279">
    <path d="M 453.6 48363.606123 
L 454.902 48363.606123 
L 454.902 48363.606123 
L 453.6 48363.606123 
z
" clip-path="url(#pd5274a88a0)" style="fill: #1f77b4"/>
   </g>
   <g id="patch_280">
    <path d="M 454.902 48363.606123 
L 456.204 48363.606123 
L 456.204 48363.606123 
L 454.902 48363.606123 
z
" clip-path="url(#pd5274a88a0)" style="fill: #1f77b4"/>
   </g>
   <g id="patch_281">
    <path d="M 456.204 48363.606123 
L 457.506 48363.606123 
L 457.506 48363.606123 
L 456.204 48363.606123 
z
" clip-path="url(#pd5274a88a0)" style="fill: #1f77b4"/>
   </g>
   <g id="patch_282">
    <path d="M 457.506 48363.606123 
L 458.808 48363.606123 
L 458.808 307.8 
L 457.506 307.8 
z
" clip-path="url(#pd5274a88a0)" style="fill: #1f77b4"/>
   </g>
   <g id="patch_283">
    <path d="M 458.808 48363.606123 
L 460.11 48363.606123 
L 460.11 48363.606123 
L 458.808 48363.606123 
z
" clip-path="url(#pd5274a88a0)" style="fill: #1f77b4"/>
   </g>
   <g id="patch_284">
    <path d="M 460.11 48363.606123 
L 461.412 48363.606123 
L 461.412 48363.606123 
L 460.11 48363.606123 
z
" clip-path="url(#pd5274a88a0)" style="fill: #1f77b4"/>
   </g>
   <g id="patch_285">
    <path d="M 461.412 48363.606123 
L 462.714 48363.606123 
L 462.714 48363.606123 
L 461.412 48363.606123 
z
" clip-path="url(#pd5274a88a0)" style="fill: #1f77b4"/>
   </g>
   <g id="patch_286">
    <path d="M 462.714 48363.606123 
L 464.016 48363.606123 
L 464.016 48363.606123 
L 462.714 48363.606123 
z
" clip-path="url(#pd5274a88a0)" style="fill: #1f77b4"/>
   </g>
   <g id="patch_287">
    <path d="M 464.016 48363.606123 
L 465.318 48363.606123 
L 465.318 48363.606123 
L 464.016 48363.606123 
z
" clip-path="url(#pd5274a88a0)" style="fill: #1f77b4"/>
   </g>
   <g id="patch_288">
    <path d="M 465.318 48363.606123 
L 466.62 48363.606123 
L 466.62 48363.606123 
L 465.318 48363.606123 
z
" clip-path="url(#pd5274a88a0)" style="fill: #1f77b4"/>
   </g>
   <g id="patch_289">
    <path d="M 466.62 48363.606123 
L 467.922 48363.606123 
L 467.922 48363.606123 
L 466.62 48363.606123 
z
" clip-path="url(#pd5274a88a0)" style="fill: #1f77b4"/>
   </g>
   <g id="patch_290">
    <path d="M 467.922 48363.606123 
L 469.224 48363.606123 
L 469.224 48363.606123 
L 467.922 48363.606123 
z
" clip-path="url(#pd5274a88a0)" style="fill: #1f77b4"/>
   </g>
   <g id="patch_291">
    <path d="M 469.224 48363.606123 
L 470.526 48363.606123 
L 470.526 48363.606123 
L 469.224 48363.606123 
z
" clip-path="url(#pd5274a88a0)" style="fill: #1f77b4"/>
   </g>
   <g id="patch_292">
    <path d="M 470.526 48363.606123 
L 471.828 48363.606123 
L 471.828 48363.606123 
L 470.526 48363.606123 
z
" clip-path="url(#pd5274a88a0)" style="fill: #1f77b4"/>
   </g>
   <g id="patch_293">
    <path d="M 471.828 48363.606123 
L 473.13 48363.606123 
L 473.13 48363.606123 
L 471.828 48363.606123 
z
" clip-path="url(#pd5274a88a0)" style="fill: #1f77b4"/>
   </g>
   <g id="patch_294">
    <path d="M 473.13 48363.606123 
L 474.432 48363.606123 
L 474.432 48363.606123 
L 473.13 48363.606123 
z
" clip-path="url(#pd5274a88a0)" style="fill: #1f77b4"/>
   </g>
   <g id="patch_295">
    <path d="M 474.432 48363.606123 
L 475.734 48363.606123 
L 475.734 48363.606123 
L 474.432 48363.606123 
z
" clip-path="url(#pd5274a88a0)" style="fill: #1f77b4"/>
   </g>
   <g id="patch_296">
    <path d="M 475.734 48363.606123 
L 477.036 48363.606123 
L 477.036 48363.606123 
L 475.734 48363.606123 
z
" clip-path="url(#pd5274a88a0)" style="fill: #1f77b4"/>
   </g>
   <g id="patch_297">
    <path d="M 477.036 48363.606123 
L 478.338 48363.606123 
L 478.338 48363.606123 
L 477.036 48363.606123 
z
" clip-path="url(#pd5274a88a0)" style="fill: #1f77b4"/>
   </g>
   <g id="patch_298">
    <path d="M 478.338 48363.606123 
L 479.64 48363.606123 
L 479.64 48363.606123 
L 478.338 48363.606123 
z
" clip-path="url(#pd5274a88a0)" style="fill: #1f77b4"/>
   </g>
   <g id="patch_299">
    <path d="M 479.64 48363.606123 
L 480.942 48363.606123 
L 480.942 48363.606123 
L 479.64 48363.606123 
z
" clip-path="url(#pd5274a88a0)" style="fill: #1f77b4"/>
   </g>
   <g id="patch_300">
    <path d="M 480.942 48363.606123 
L 482.244 48363.606123 
L 482.244 307.8 
L 480.942 307.8 
z
" clip-path="url(#pd5274a88a0)" style="fill: #1f77b4"/>
   </g>
   <g id="matplotlib.axis_1">
    <g id="xtick_1">
     <g id="line2d_1">
      <defs>
       <path id="m85e15976e1" d="M 0 0 
L 0 3.5 
" style="stroke: #000000; stroke-width: 0.8"/>
      </defs>
      <g>
       <use xlink:href="#m85e15976e1" x="63" y="320.4" style="stroke: #000000; stroke-width: 0.8"/>
      </g>
     </g>
     <g id="text_1">
      <!-- 0 -->
      <g transform="translate(58.54625 338.037813) scale(0.14 -0.14)">
       <defs>
        <path id="DejaVuSans-30" d="M 2034 4250 
Q 1547 4250 1301 3770 
Q 1056 3291 1056 2328 
Q 1056 1369 1301 889 
Q 1547 409 2034 409 
Q 2525 409 2770 889 
Q 3016 1369 3016 2328 
Q 3016 3291 2770 3770 
Q 2525 4250 2034 4250 
z
M 2034 4750 
Q 2819 4750 3233 4129 
Q 3647 3509 3647 2328 
Q 3647 1150 3233 529 
Q 2819 -91 2034 -91 
Q 1250 -91 836 529 
Q 422 1150 422 2328 
Q 422 3509 836 4129 
Q 1250 4750 2034 4750 
z
" transform="scale(0.015625)"/>
       </defs>
       <use xlink:href="#DejaVuSans-30"/>
      </g>
     </g>
    </g>
    <g id="xtick_2">
     <g id="line2d_2">
      <g>
       <use xlink:href="#m85e15976e1" x="128.1" y="320.4" style="stroke: #000000; stroke-width: 0.8"/>
      </g>
     </g>
     <g id="text_2">
      <!-- 50 -->
      <g transform="translate(119.1925 338.037813) scale(0.14 -0.14)">
       <defs>
        <path id="DejaVuSans-35" d="M 691 4666 
L 3169 4666 
L 3169 4134 
L 1269 4134 
L 1269 2991 
Q 1406 3038 1543 3061 
Q 1681 3084 1819 3084 
Q 2600 3084 3056 2656 
Q 3513 2228 3513 1497 
Q 3513 744 3044 326 
Q 2575 -91 1722 -91 
Q 1428 -91 1123 -41 
Q 819 9 494 109 
L 494 744 
Q 775 591 1075 516 
Q 1375 441 1709 441 
Q 2250 441 2565 725 
Q 2881 1009 2881 1497 
Q 2881 1984 2565 2268 
Q 2250 2553 1709 2553 
Q 1456 2553 1204 2497 
Q 953 2441 691 2322 
L 691 4666 
z
" transform="scale(0.015625)"/>
       </defs>
       <use xlink:href="#DejaVuSans-35"/>
       <use xlink:href="#DejaVuSans-30" x="63.623047"/>
      </g>
     </g>
    </g>
    <g id="xtick_3">
     <g id="line2d_3">
      <g>
       <use xlink:href="#m85e15976e1" x="193.2" y="320.4" style="stroke: #000000; stroke-width: 0.8"/>
      </g>
     </g>
     <g id="text_3">
      <!-- 100 -->
      <g transform="translate(179.83875 338.037813) scale(0.14 -0.14)">
       <defs>
        <path id="DejaVuSans-31" d="M 794 531 
L 1825 531 
L 1825 4091 
L 703 3866 
L 703 4441 
L 1819 4666 
L 2450 4666 
L 2450 531 
L 3481 531 
L 3481 0 
L 794 0 
L 794 531 
z
" transform="scale(0.015625)"/>
       </defs>
       <use xlink:href="#DejaVuSans-31"/>
       <use xlink:href="#DejaVuSans-30" x="63.623047"/>
       <use xlink:href="#DejaVuSans-30" x="127.246094"/>
      </g>
     </g>
    </g>
    <g id="xtick_4">
     <g id="line2d_4">
      <g>
       <use xlink:href="#m85e15976e1" x="258.3" y="320.4" style="stroke: #000000; stroke-width: 0.8"/>
      </g>
     </g>
     <g id="text_4">
      <!-- 150 -->
      <g transform="translate(244.93875 338.037813) scale(0.14 -0.14)">
       <use xlink:href="#DejaVuSans-31"/>
       <use xlink:href="#DejaVuSans-35" x="63.623047"/>
       <use xlink:href="#DejaVuSans-30" x="127.246094"/>
      </g>
     </g>
    </g>
    <g id="xtick_5">
     <g id="line2d_5">
      <g>
       <use xlink:href="#m85e15976e1" x="323.4" y="320.4" style="stroke: #000000; stroke-width: 0.8"/>
      </g>
     </g>
     <g id="text_5">
      <!-- 200 -->
      <g transform="translate(310.03875 338.037813) scale(0.14 -0.14)">
       <defs>
        <path id="DejaVuSans-32" d="M 1228 531 
L 3431 531 
L 3431 0 
L 469 0 
L 469 531 
Q 828 903 1448 1529 
Q 2069 2156 2228 2338 
Q 2531 2678 2651 2914 
Q 2772 3150 2772 3378 
Q 2772 3750 2511 3984 
Q 2250 4219 1831 4219 
Q 1534 4219 1204 4116 
Q 875 4013 500 3803 
L 500 4441 
Q 881 4594 1212 4672 
Q 1544 4750 1819 4750 
Q 2544 4750 2975 4387 
Q 3406 4025 3406 3419 
Q 3406 3131 3298 2873 
Q 3191 2616 2906 2266 
Q 2828 2175 2409 1742 
Q 1991 1309 1228 531 
z
" transform="scale(0.015625)"/>
       </defs>
       <use xlink:href="#DejaVuSans-32"/>
       <use xlink:href="#DejaVuSans-30" x="63.623047"/>
       <use xlink:href="#DejaVuSans-30" x="127.246094"/>
      </g>
     </g>
    </g>
    <g id="xtick_6">
     <g id="line2d_6">
      <g>
       <use xlink:href="#m85e15976e1" x="388.5" y="320.4" style="stroke: #000000; stroke-width: 0.8"/>
      </g>
     </g>
     <g id="text_6">
      <!-- 250 -->
      <g transform="translate(375.13875 338.037813) scale(0.14 -0.14)">
       <use xlink:href="#DejaVuSans-32"/>
       <use xlink:href="#DejaVuSans-35" x="63.623047"/>
       <use xlink:href="#DejaVuSans-30" x="127.246094"/>
      </g>
     </g>
    </g>
    <g id="xtick_7">
     <g id="line2d_7">
      <g>
       <use xlink:href="#m85e15976e1" x="453.6" y="320.4" style="stroke: #000000; stroke-width: 0.8"/>
      </g>
     </g>
     <g id="text_7">
      <!-- 300 -->
      <g transform="translate(440.23875 338.037813) scale(0.14 -0.14)">
       <defs>
        <path id="DejaVuSans-33" d="M 2597 2516 
Q 3050 2419 3304 2112 
Q 3559 1806 3559 1356 
Q 3559 666 3084 287 
Q 2609 -91 1734 -91 
Q 1441 -91 1130 -33 
Q 819 25 488 141 
L 488 750 
Q 750 597 1062 519 
Q 1375 441 1716 441 
Q 2309 441 2620 675 
Q 2931 909 2931 1356 
Q 2931 1769 2642 2001 
Q 2353 2234 1838 2234 
L 1294 2234 
L 1294 2753 
L 1863 2753 
Q 2328 2753 2575 2939 
Q 2822 3125 2822 3475 
Q 2822 3834 2567 4026 
Q 2313 4219 1838 4219 
Q 1578 4219 1281 4162 
Q 984 4106 628 3988 
L 628 4550 
Q 988 4650 1302 4700 
Q 1616 4750 1894 4750 
Q 2613 4750 3031 4423 
Q 3450 4097 3450 3541 
Q 3450 3153 3228 2886 
Q 3006 2619 2597 2516 
z
" transform="scale(0.015625)"/>
       </defs>
       <use xlink:href="#DejaVuSans-33"/>
       <use xlink:href="#DejaVuSans-30" x="63.623047"/>
       <use xlink:href="#DejaVuSans-30" x="127.246094"/>
      </g>
     </g>
    </g>
    <g id="text_8">
     <!-- Pixel intensity value -->
     <g transform="translate(173.176484 357.866719) scale(0.17 -0.17)">
      <defs>
       <path id="DejaVuSans-50" d="M 1259 4147 
L 1259 2394 
L 2053 2394 
Q 2494 2394 2734 2622 
Q 2975 2850 2975 3272 
Q 2975 3691 2734 3919 
Q 2494 4147 2053 4147 
L 1259 4147 
z
M 628 4666 
L 2053 4666 
Q 2838 4666 3239 4311 
Q 3641 3956 3641 3272 
Q 3641 2581 3239 2228 
Q 2838 1875 2053 1875 
L 1259 1875 
L 1259 0 
L 628 0 
L 628 4666 
z
" transform="scale(0.015625)"/>
       <path id="DejaVuSans-69" d="M 603 3500 
L 1178 3500 
L 1178 0 
L 603 0 
L 603 3500 
z
M 603 4863 
L 1178 4863 
L 1178 4134 
L 603 4134 
L 603 4863 
z
" transform="scale(0.015625)"/>
       <path id="DejaVuSans-78" d="M 3513 3500 
L 2247 1797 
L 3578 0 
L 2900 0 
L 1881 1375 
L 863 0 
L 184 0 
L 1544 1831 
L 300 3500 
L 978 3500 
L 1906 2253 
L 2834 3500 
L 3513 3500 
z
" transform="scale(0.015625)"/>
       <path id="DejaVuSans-65" d="M 3597 1894 
L 3597 1613 
L 953 1613 
Q 991 1019 1311 708 
Q 1631 397 2203 397 
Q 2534 397 2845 478 
Q 3156 559 3463 722 
L 3463 178 
Q 3153 47 2828 -22 
Q 2503 -91 2169 -91 
Q 1331 -91 842 396 
Q 353 884 353 1716 
Q 353 2575 817 3079 
Q 1281 3584 2069 3584 
Q 2775 3584 3186 3129 
Q 3597 2675 3597 1894 
z
M 3022 2063 
Q 3016 2534 2758 2815 
Q 2500 3097 2075 3097 
Q 1594 3097 1305 2825 
Q 1016 2553 972 2059 
L 3022 2063 
z
" transform="scale(0.015625)"/>
       <path id="DejaVuSans-6c" d="M 603 4863 
L 1178 4863 
L 1178 0 
L 603 0 
L 603 4863 
z
" transform="scale(0.015625)"/>
       <path id="DejaVuSans-20" transform="scale(0.015625)"/>
       <path id="DejaVuSans-6e" d="M 3513 2113 
L 3513 0 
L 2938 0 
L 2938 2094 
Q 2938 2591 2744 2837 
Q 2550 3084 2163 3084 
Q 1697 3084 1428 2787 
Q 1159 2491 1159 1978 
L 1159 0 
L 581 0 
L 581 3500 
L 1159 3500 
L 1159 2956 
Q 1366 3272 1645 3428 
Q 1925 3584 2291 3584 
Q 2894 3584 3203 3211 
Q 3513 2838 3513 2113 
z
" transform="scale(0.015625)"/>
       <path id="DejaVuSans-74" d="M 1172 4494 
L 1172 3500 
L 2356 3500 
L 2356 3053 
L 1172 3053 
L 1172 1153 
Q 1172 725 1289 603 
Q 1406 481 1766 481 
L 2356 481 
L 2356 0 
L 1766 0 
Q 1100 0 847 248 
Q 594 497 594 1153 
L 594 3053 
L 172 3053 
L 172 3500 
L 594 3500 
L 594 4494 
L 1172 4494 
z
" transform="scale(0.015625)"/>
       <path id="DejaVuSans-73" d="M 2834 3397 
L 2834 2853 
Q 2591 2978 2328 3040 
Q 2066 3103 1784 3103 
Q 1356 3103 1142 2972 
Q 928 2841 928 2578 
Q 928 2378 1081 2264 
Q 1234 2150 1697 2047 
L 1894 2003 
Q 2506 1872 2764 1633 
Q 3022 1394 3022 966 
Q 3022 478 2636 193 
Q 2250 -91 1575 -91 
Q 1294 -91 989 -36 
Q 684 19 347 128 
L 347 722 
Q 666 556 975 473 
Q 1284 391 1588 391 
Q 1994 391 2212 530 
Q 2431 669 2431 922 
Q 2431 1156 2273 1281 
Q 2116 1406 1581 1522 
L 1381 1569 
Q 847 1681 609 1914 
Q 372 2147 372 2553 
Q 372 3047 722 3315 
Q 1072 3584 1716 3584 
Q 2034 3584 2315 3537 
Q 2597 3491 2834 3397 
z
" transform="scale(0.015625)"/>
       <path id="DejaVuSans-79" d="M 2059 -325 
Q 1816 -950 1584 -1140 
Q 1353 -1331 966 -1331 
L 506 -1331 
L 506 -850 
L 844 -850 
Q 1081 -850 1212 -737 
Q 1344 -625 1503 -206 
L 1606 56 
L 191 3500 
L 800 3500 
L 1894 763 
L 2988 3500 
L 3597 3500 
L 2059 -325 
z
" transform="scale(0.015625)"/>
       <path id="DejaVuSans-76" d="M 191 3500 
L 800 3500 
L 1894 563 
L 2988 3500 
L 3597 3500 
L 2284 0 
L 1503 0 
L 191 3500 
z
" transform="scale(0.015625)"/>
       <path id="DejaVuSans-61" d="M 2194 1759 
Q 1497 1759 1228 1600 
Q 959 1441 959 1056 
Q 959 750 1161 570 
Q 1363 391 1709 391 
Q 2188 391 2477 730 
Q 2766 1069 2766 1631 
L 2766 1759 
L 2194 1759 
z
M 3341 1997 
L 3341 0 
L 2766 0 
L 2766 531 
Q 2569 213 2275 61 
Q 1981 -91 1556 -91 
Q 1019 -91 701 211 
Q 384 513 384 1019 
Q 384 1609 779 1909 
Q 1175 2209 1959 2209 
L 2766 2209 
L 2766 2266 
Q 2766 2663 2505 2880 
Q 2244 3097 1772 3097 
Q 1472 3097 1187 3025 
Q 903 2953 641 2809 
L 641 3341 
Q 956 3463 1253 3523 
Q 1550 3584 1831 3584 
Q 2591 3584 2966 3190 
Q 3341 2797 3341 1997 
z
" transform="scale(0.015625)"/>
       <path id="DejaVuSans-75" d="M 544 1381 
L 544 3500 
L 1119 3500 
L 1119 1403 
Q 1119 906 1312 657 
Q 1506 409 1894 409 
Q 2359 409 2629 706 
Q 2900 1003 2900 1516 
L 2900 3500 
L 3475 3500 
L 3475 0 
L 2900 0 
L 2900 538 
Q 2691 219 2414 64 
Q 2138 -91 1772 -91 
Q 1169 -91 856 284 
Q 544 659 544 1381 
z
M 1991 3584 
L 1991 3584 
z
" transform="scale(0.015625)"/>
      </defs>
      <use xlink:href="#DejaVuSans-50"/>
      <use xlink:href="#DejaVuSans-69" x="58.052734"/>
      <use xlink:href="#DejaVuSans-78" x="85.835938"/>
      <use xlink:href="#DejaVuSans-65" x="141.890625"/>
      <use xlink:href="#DejaVuSans-6c" x="203.414062"/>
      <use xlink:href="#DejaVuSans-20" x="231.197266"/>
      <use xlink:href="#DejaVuSans-69" x="262.984375"/>
      <use xlink:href="#DejaVuSans-6e" x="290.767578"/>
      <use xlink:href="#DejaVuSans-74" x="354.146484"/>
      <use xlink:href="#DejaVuSans-65" x="393.355469"/>
      <use xlink:href="#DejaVuSans-6e" x="454.878906"/>
      <use xlink:href="#DejaVuSans-73" x="518.257812"/>
      <use xlink:href="#DejaVuSans-69" x="570.357422"/>
      <use xlink:href="#DejaVuSans-74" x="598.140625"/>
      <use xlink:href="#DejaVuSans-79" x="637.349609"/>
      <use xlink:href="#DejaVuSans-20" x="696.529297"/>
      <use xlink:href="#DejaVuSans-76" x="728.316406"/>
      <use xlink:href="#DejaVuSans-61" x="787.496094"/>
      <use xlink:href="#DejaVuSans-6c" x="848.775391"/>
      <use xlink:href="#DejaVuSans-75" x="876.558594"/>
      <use xlink:href="#DejaVuSans-65" x="939.9375"/>
     </g>
    </g>
   </g>
   <g id="matplotlib.axis_2">
    <g id="ytick_1">
     <g id="line2d_8">
      <defs>
       <path id="m17134e79fd" d="M 0 0 
L -3.5 0 
" style="stroke: #000000; stroke-width: 0.8"/>
      </defs>
      <g>
       <use xlink:href="#m17134e79fd" x="63" y="307.8" style="stroke: #000000; stroke-width: 0.8"/>
      </g>
     </g>
     <g id="text_9">
      <!-- $\mathdefault{10^{0}}$ -->
      <g transform="translate(31.36 313.118906) scale(0.14 -0.14)">
       <use xlink:href="#DejaVuSans-31" transform="translate(0 0.765625)"/>
       <use xlink:href="#DejaVuSans-30" transform="translate(63.623047 0.765625)"/>
       <use xlink:href="#DejaVuSans-30" transform="translate(128.203125 39.046875) scale(0.7)"/>
      </g>
     </g>
    </g>
    <g id="ytick_2">
     <g id="line2d_9">
      <g>
       <use xlink:href="#m17134e79fd" x="63" y="259.744194" style="stroke: #000000; stroke-width: 0.8"/>
      </g>
     </g>
     <g id="text_10">
      <!-- $\mathdefault{10^{1}}$ -->
      <g transform="translate(31.36 265.0631) scale(0.14 -0.14)">
       <use xlink:href="#DejaVuSans-31" transform="translate(0 0.684375)"/>
       <use xlink:href="#DejaVuSans-30" transform="translate(63.623047 0.684375)"/>
       <use xlink:href="#DejaVuSans-31" transform="translate(128.203125 38.965625) scale(0.7)"/>
      </g>
     </g>
    </g>
    <g id="ytick_3">
     <g id="line2d_10">
      <g>
       <use xlink:href="#m17134e79fd" x="63" y="211.688388" style="stroke: #000000; stroke-width: 0.8"/>
      </g>
     </g>
     <g id="text_11">
      <!-- $\mathdefault{10^{2}}$ -->
      <g transform="translate(31.36 217.007294) scale(0.14 -0.14)">
       <use xlink:href="#DejaVuSans-31" transform="translate(0 0.765625)"/>
       <use xlink:href="#DejaVuSans-30" transform="translate(63.623047 0.765625)"/>
       <use xlink:href="#DejaVuSans-32" transform="translate(128.203125 39.046875) scale(0.7)"/>
      </g>
     </g>
    </g>
    <g id="ytick_4">
     <g id="line2d_11">
      <g>
       <use xlink:href="#m17134e79fd" x="63" y="163.632582" style="stroke: #000000; stroke-width: 0.8"/>
      </g>
     </g>
     <g id="text_12">
      <!-- $\mathdefault{10^{3}}$ -->
      <g transform="translate(31.36 168.951488) scale(0.14 -0.14)">
       <use xlink:href="#DejaVuSans-31" transform="translate(0 0.765625)"/>
       <use xlink:href="#DejaVuSans-30" transform="translate(63.623047 0.765625)"/>
       <use xlink:href="#DejaVuSans-33" transform="translate(128.203125 39.046875) scale(0.7)"/>
      </g>
     </g>
    </g>
    <g id="ytick_5">
     <g id="line2d_12">
      <g>
       <use xlink:href="#m17134e79fd" x="63" y="115.576776" style="stroke: #000000; stroke-width: 0.8"/>
      </g>
     </g>
     <g id="text_13">
      <!-- $\mathdefault{10^{4}}$ -->
      <g transform="translate(31.36 120.895682) scale(0.14 -0.14)">
       <defs>
        <path id="DejaVuSans-34" d="M 2419 4116 
L 825 1625 
L 2419 1625 
L 2419 4116 
z
M 2253 4666 
L 3047 4666 
L 3047 1625 
L 3713 1625 
L 3713 1100 
L 3047 1100 
L 3047 0 
L 2419 0 
L 2419 1100 
L 313 1100 
L 313 1709 
L 2253 4666 
z
" transform="scale(0.015625)"/>
       </defs>
       <use xlink:href="#DejaVuSans-31" transform="translate(0 0.684375)"/>
       <use xlink:href="#DejaVuSans-30" transform="translate(63.623047 0.684375)"/>
       <use xlink:href="#DejaVuSans-34" transform="translate(128.203125 38.965625) scale(0.7)"/>
      </g>
     </g>
    </g>
    <g id="ytick_6">
     <g id="line2d_13">
      <g>
       <use xlink:href="#m17134e79fd" x="63" y="67.520969" style="stroke: #000000; stroke-width: 0.8"/>
      </g>
     </g>
     <g id="text_14">
      <!-- $\mathdefault{10^{5}}$ -->
      <g transform="translate(31.36 72.839876) scale(0.14 -0.14)">
       <use xlink:href="#DejaVuSans-31" transform="translate(0 0.684375)"/>
       <use xlink:href="#DejaVuSans-30" transform="translate(63.623047 0.684375)"/>
       <use xlink:href="#DejaVuSans-35" transform="translate(128.203125 38.965625) scale(0.7)"/>
      </g>
     </g>
    </g>
    <g id="ytick_7">
     <g id="line2d_14">
      <defs>
       <path id="m613222ea94" d="M 0 0 
L -2 0 
" style="stroke: #000000; stroke-width: 0.6"/>
      </defs>
      <g>
       <use xlink:href="#m613222ea94" x="63" y="318.461121" style="stroke: #000000; stroke-width: 0.6"/>
      </g>
     </g>
    </g>
    <g id="ytick_8">
     <g id="line2d_15">
      <g>
       <use xlink:href="#m613222ea94" x="63" y="315.243939" style="stroke: #000000; stroke-width: 0.6"/>
      </g>
     </g>
    </g>
    <g id="ytick_9">
     <g id="line2d_16">
      <g>
       <use xlink:href="#m613222ea94" x="63" y="312.457089" style="stroke: #000000; stroke-width: 0.6"/>
      </g>
     </g>
    </g>
    <g id="ytick_10">
     <g id="line2d_17">
      <g>
       <use xlink:href="#m613222ea94" x="63" y="309.998913" style="stroke: #000000; stroke-width: 0.6"/>
      </g>
     </g>
    </g>
    <g id="ytick_11">
     <g id="line2d_18">
      <g>
       <use xlink:href="#m613222ea94" x="63" y="293.333761" style="stroke: #000000; stroke-width: 0.6"/>
      </g>
     </g>
    </g>
    <g id="ytick_12">
     <g id="line2d_19">
      <g>
       <use xlink:href="#m613222ea94" x="63" y="284.871553" style="stroke: #000000; stroke-width: 0.6"/>
      </g>
     </g>
    </g>
    <g id="ytick_13">
     <g id="line2d_20">
      <g>
       <use xlink:href="#m613222ea94" x="63" y="278.867522" style="stroke: #000000; stroke-width: 0.6"/>
      </g>
     </g>
    </g>
    <g id="ytick_14">
     <g id="line2d_21">
      <g>
       <use xlink:href="#m613222ea94" x="63" y="274.210433" style="stroke: #000000; stroke-width: 0.6"/>
      </g>
     </g>
    </g>
    <g id="ytick_15">
     <g id="line2d_22">
      <g>
       <use xlink:href="#m613222ea94" x="63" y="270.405314" style="stroke: #000000; stroke-width: 0.6"/>
      </g>
     </g>
    </g>
    <g id="ytick_16">
     <g id="line2d_23">
      <g>
       <use xlink:href="#m613222ea94" x="63" y="267.188132" style="stroke: #000000; stroke-width: 0.6"/>
      </g>
     </g>
    </g>
    <g id="ytick_17">
     <g id="line2d_24">
      <g>
       <use xlink:href="#m613222ea94" x="63" y="264.401283" style="stroke: #000000; stroke-width: 0.6"/>
      </g>
     </g>
    </g>
    <g id="ytick_18">
     <g id="line2d_25">
      <g>
       <use xlink:href="#m613222ea94" x="63" y="261.943107" style="stroke: #000000; stroke-width: 0.6"/>
      </g>
     </g>
    </g>
    <g id="ytick_19">
     <g id="line2d_26">
      <g>
       <use xlink:href="#m613222ea94" x="63" y="245.277955" style="stroke: #000000; stroke-width: 0.6"/>
      </g>
     </g>
    </g>
    <g id="ytick_20">
     <g id="line2d_27">
      <g>
       <use xlink:href="#m613222ea94" x="63" y="236.815747" style="stroke: #000000; stroke-width: 0.6"/>
      </g>
     </g>
    </g>
    <g id="ytick_21">
     <g id="line2d_28">
      <g>
       <use xlink:href="#m613222ea94" x="63" y="230.811716" style="stroke: #000000; stroke-width: 0.6"/>
      </g>
     </g>
    </g>
    <g id="ytick_22">
     <g id="line2d_29">
      <g>
       <use xlink:href="#m613222ea94" x="63" y="226.154627" style="stroke: #000000; stroke-width: 0.6"/>
      </g>
     </g>
    </g>
    <g id="ytick_23">
     <g id="line2d_30">
      <g>
       <use xlink:href="#m613222ea94" x="63" y="222.349508" style="stroke: #000000; stroke-width: 0.6"/>
      </g>
     </g>
    </g>
    <g id="ytick_24">
     <g id="line2d_31">
      <g>
       <use xlink:href="#m613222ea94" x="63" y="219.132326" style="stroke: #000000; stroke-width: 0.6"/>
      </g>
     </g>
    </g>
    <g id="ytick_25">
     <g id="line2d_32">
      <g>
       <use xlink:href="#m613222ea94" x="63" y="216.345477" style="stroke: #000000; stroke-width: 0.6"/>
      </g>
     </g>
    </g>
    <g id="ytick_26">
     <g id="line2d_33">
      <g>
       <use xlink:href="#m613222ea94" x="63" y="213.887301" style="stroke: #000000; stroke-width: 0.6"/>
      </g>
     </g>
    </g>
    <g id="ytick_27">
     <g id="line2d_34">
      <g>
       <use xlink:href="#m613222ea94" x="63" y="197.222149" style="stroke: #000000; stroke-width: 0.6"/>
      </g>
     </g>
    </g>
    <g id="ytick_28">
     <g id="line2d_35">
      <g>
       <use xlink:href="#m613222ea94" x="63" y="188.759941" style="stroke: #000000; stroke-width: 0.6"/>
      </g>
     </g>
    </g>
    <g id="ytick_29">
     <g id="line2d_36">
      <g>
       <use xlink:href="#m613222ea94" x="63" y="182.75591" style="stroke: #000000; stroke-width: 0.6"/>
      </g>
     </g>
    </g>
    <g id="ytick_30">
     <g id="line2d_37">
      <g>
       <use xlink:href="#m613222ea94" x="63" y="178.098821" style="stroke: #000000; stroke-width: 0.6"/>
      </g>
     </g>
    </g>
    <g id="ytick_31">
     <g id="line2d_38">
      <g>
       <use xlink:href="#m613222ea94" x="63" y="174.293702" style="stroke: #000000; stroke-width: 0.6"/>
      </g>
     </g>
    </g>
    <g id="ytick_32">
     <g id="line2d_39">
      <g>
       <use xlink:href="#m613222ea94" x="63" y="171.07652" style="stroke: #000000; stroke-width: 0.6"/>
      </g>
     </g>
    </g>
    <g id="ytick_33">
     <g id="line2d_40">
      <g>
       <use xlink:href="#m613222ea94" x="63" y="168.28967" style="stroke: #000000; stroke-width: 0.6"/>
      </g>
     </g>
    </g>
    <g id="ytick_34">
     <g id="line2d_41">
      <g>
       <use xlink:href="#m613222ea94" x="63" y="165.831495" style="stroke: #000000; stroke-width: 0.6"/>
      </g>
     </g>
    </g>
    <g id="ytick_35">
     <g id="line2d_42">
      <g>
       <use xlink:href="#m613222ea94" x="63" y="149.166343" style="stroke: #000000; stroke-width: 0.6"/>
      </g>
     </g>
    </g>
    <g id="ytick_36">
     <g id="line2d_43">
      <g>
       <use xlink:href="#m613222ea94" x="63" y="140.704135" style="stroke: #000000; stroke-width: 0.6"/>
      </g>
     </g>
    </g>
    <g id="ytick_37">
     <g id="line2d_44">
      <g>
       <use xlink:href="#m613222ea94" x="63" y="134.700103" style="stroke: #000000; stroke-width: 0.6"/>
      </g>
     </g>
    </g>
    <g id="ytick_38">
     <g id="line2d_45">
      <g>
       <use xlink:href="#m613222ea94" x="63" y="130.043015" style="stroke: #000000; stroke-width: 0.6"/>
      </g>
     </g>
    </g>
    <g id="ytick_39">
     <g id="line2d_46">
      <g>
       <use xlink:href="#m613222ea94" x="63" y="126.237896" style="stroke: #000000; stroke-width: 0.6"/>
      </g>
     </g>
    </g>
    <g id="ytick_40">
     <g id="line2d_47">
      <g>
       <use xlink:href="#m613222ea94" x="63" y="123.020714" style="stroke: #000000; stroke-width: 0.6"/>
      </g>
     </g>
    </g>
    <g id="ytick_41">
     <g id="line2d_48">
      <g>
       <use xlink:href="#m613222ea94" x="63" y="120.233864" style="stroke: #000000; stroke-width: 0.6"/>
      </g>
     </g>
    </g>
    <g id="ytick_42">
     <g id="line2d_49">
      <g>
       <use xlink:href="#m613222ea94" x="63" y="117.775689" style="stroke: #000000; stroke-width: 0.6"/>
      </g>
     </g>
    </g>
    <g id="ytick_43">
     <g id="line2d_50">
      <g>
       <use xlink:href="#m613222ea94" x="63" y="101.110536" style="stroke: #000000; stroke-width: 0.6"/>
      </g>
     </g>
    </g>
    <g id="ytick_44">
     <g id="line2d_51">
      <g>
       <use xlink:href="#m613222ea94" x="63" y="92.648329" style="stroke: #000000; stroke-width: 0.6"/>
      </g>
     </g>
    </g>
    <g id="ytick_45">
     <g id="line2d_52">
      <g>
       <use xlink:href="#m613222ea94" x="63" y="86.644297" style="stroke: #000000; stroke-width: 0.6"/>
      </g>
     </g>
    </g>
    <g id="ytick_46">
     <g id="line2d_53">
      <g>
       <use xlink:href="#m613222ea94" x="63" y="81.987208" style="stroke: #000000; stroke-width: 0.6"/>
      </g>
     </g>
    </g>
    <g id="ytick_47">
     <g id="line2d_54">
      <g>
       <use xlink:href="#m613222ea94" x="63" y="78.18209" style="stroke: #000000; stroke-width: 0.6"/>
      </g>
     </g>
    </g>
    <g id="ytick_48">
     <g id="line2d_55">
      <g>
       <use xlink:href="#m613222ea94" x="63" y="74.964908" style="stroke: #000000; stroke-width: 0.6"/>
      </g>
     </g>
    </g>
    <g id="ytick_49">
     <g id="line2d_56">
      <g>
       <use xlink:href="#m613222ea94" x="63" y="72.178058" style="stroke: #000000; stroke-width: 0.6"/>
      </g>
     </g>
    </g>
    <g id="ytick_50">
     <g id="line2d_57">
      <g>
       <use xlink:href="#m613222ea94" x="63" y="69.719882" style="stroke: #000000; stroke-width: 0.6"/>
      </g>
     </g>
    </g>
    <g id="ytick_51">
     <g id="line2d_58">
      <g>
       <use xlink:href="#m613222ea94" x="63" y="53.05473" style="stroke: #000000; stroke-width: 0.6"/>
      </g>
     </g>
    </g>
    <g id="ytick_52">
     <g id="line2d_59">
      <g>
       <use xlink:href="#m613222ea94" x="63" y="44.592523" style="stroke: #000000; stroke-width: 0.6"/>
      </g>
     </g>
    </g>
    <g id="text_15">
     <!-- Number of pixels -->
     <g transform="translate(23.824531 254.084531) rotate(-90) scale(0.17 -0.17)">
      <defs>
       <path id="DejaVuSans-4e" d="M 628 4666 
L 1478 4666 
L 3547 763 
L 3547 4666 
L 4159 4666 
L 4159 0 
L 3309 0 
L 1241 3903 
L 1241 0 
L 628 0 
L 628 4666 
z
" transform="scale(0.015625)"/>
       <path id="DejaVuSans-6d" d="M 3328 2828 
Q 3544 3216 3844 3400 
Q 4144 3584 4550 3584 
Q 5097 3584 5394 3201 
Q 5691 2819 5691 2113 
L 5691 0 
L 5113 0 
L 5113 2094 
Q 5113 2597 4934 2840 
Q 4756 3084 4391 3084 
Q 3944 3084 3684 2787 
Q 3425 2491 3425 1978 
L 3425 0 
L 2847 0 
L 2847 2094 
Q 2847 2600 2669 2842 
Q 2491 3084 2119 3084 
Q 1678 3084 1418 2786 
Q 1159 2488 1159 1978 
L 1159 0 
L 581 0 
L 581 3500 
L 1159 3500 
L 1159 2956 
Q 1356 3278 1631 3431 
Q 1906 3584 2284 3584 
Q 2666 3584 2933 3390 
Q 3200 3197 3328 2828 
z
" transform="scale(0.015625)"/>
       <path id="DejaVuSans-62" d="M 3116 1747 
Q 3116 2381 2855 2742 
Q 2594 3103 2138 3103 
Q 1681 3103 1420 2742 
Q 1159 2381 1159 1747 
Q 1159 1113 1420 752 
Q 1681 391 2138 391 
Q 2594 391 2855 752 
Q 3116 1113 3116 1747 
z
M 1159 2969 
Q 1341 3281 1617 3432 
Q 1894 3584 2278 3584 
Q 2916 3584 3314 3078 
Q 3713 2572 3713 1747 
Q 3713 922 3314 415 
Q 2916 -91 2278 -91 
Q 1894 -91 1617 61 
Q 1341 213 1159 525 
L 1159 0 
L 581 0 
L 581 4863 
L 1159 4863 
L 1159 2969 
z
" transform="scale(0.015625)"/>
       <path id="DejaVuSans-72" d="M 2631 2963 
Q 2534 3019 2420 3045 
Q 2306 3072 2169 3072 
Q 1681 3072 1420 2755 
Q 1159 2438 1159 1844 
L 1159 0 
L 581 0 
L 581 3500 
L 1159 3500 
L 1159 2956 
Q 1341 3275 1631 3429 
Q 1922 3584 2338 3584 
Q 2397 3584 2469 3576 
Q 2541 3569 2628 3553 
L 2631 2963 
z
" transform="scale(0.015625)"/>
       <path id="DejaVuSans-6f" d="M 1959 3097 
Q 1497 3097 1228 2736 
Q 959 2375 959 1747 
Q 959 1119 1226 758 
Q 1494 397 1959 397 
Q 2419 397 2687 759 
Q 2956 1122 2956 1747 
Q 2956 2369 2687 2733 
Q 2419 3097 1959 3097 
z
M 1959 3584 
Q 2709 3584 3137 3096 
Q 3566 2609 3566 1747 
Q 3566 888 3137 398 
Q 2709 -91 1959 -91 
Q 1206 -91 779 398 
Q 353 888 353 1747 
Q 353 2609 779 3096 
Q 1206 3584 1959 3584 
z
" transform="scale(0.015625)"/>
       <path id="DejaVuSans-66" d="M 2375 4863 
L 2375 4384 
L 1825 4384 
Q 1516 4384 1395 4259 
Q 1275 4134 1275 3809 
L 1275 3500 
L 2222 3500 
L 2222 3053 
L 1275 3053 
L 1275 0 
L 697 0 
L 697 3053 
L 147 3053 
L 147 3500 
L 697 3500 
L 697 3744 
Q 697 4328 969 4595 
Q 1241 4863 1831 4863 
L 2375 4863 
z
" transform="scale(0.015625)"/>
       <path id="DejaVuSans-70" d="M 1159 525 
L 1159 -1331 
L 581 -1331 
L 581 3500 
L 1159 3500 
L 1159 2969 
Q 1341 3281 1617 3432 
Q 1894 3584 2278 3584 
Q 2916 3584 3314 3078 
Q 3713 2572 3713 1747 
Q 3713 922 3314 415 
Q 2916 -91 2278 -91 
Q 1894 -91 1617 61 
Q 1341 213 1159 525 
z
M 3116 1747 
Q 3116 2381 2855 2742 
Q 2594 3103 2138 3103 
Q 1681 3103 1420 2742 
Q 1159 2381 1159 1747 
Q 1159 1113 1420 752 
Q 1681 391 2138 391 
Q 2594 391 2855 752 
Q 3116 1113 3116 1747 
z
" transform="scale(0.015625)"/>
      </defs>
      <use xlink:href="#DejaVuSans-4e"/>
      <use xlink:href="#DejaVuSans-75" x="74.804688"/>
      <use xlink:href="#DejaVuSans-6d" x="138.183594"/>
      <use xlink:href="#DejaVuSans-62" x="235.595703"/>
      <use xlink:href="#DejaVuSans-65" x="299.072266"/>
      <use xlink:href="#DejaVuSans-72" x="360.595703"/>
      <use xlink:href="#DejaVuSans-20" x="401.708984"/>
      <use xlink:href="#DejaVuSans-6f" x="433.496094"/>
      <use xlink:href="#DejaVuSans-66" x="494.677734"/>
      <use xlink:href="#DejaVuSans-20" x="529.882812"/>
      <use xlink:href="#DejaVuSans-70" x="561.669922"/>
      <use xlink:href="#DejaVuSans-69" x="625.146484"/>
      <use xlink:href="#DejaVuSans-78" x="652.929688"/>
      <use xlink:href="#DejaVuSans-65" x="708.984375"/>
      <use xlink:href="#DejaVuSans-6c" x="770.507812"/>
      <use xlink:href="#DejaVuSans-73" x="798.291016"/>
     </g>
    </g>
   </g>
   <g id="patch_301">
    <path d="M 63 320.4 
L 63 43.2 
" style="fill: none; stroke: #000000; stroke-width: 0.8; stroke-linejoin: miter; stroke-linecap: square"/>
   </g>
   <g id="patch_302">
    <path d="M 453.6 320.4 
L 453.6 43.2 
" style="fill: none; stroke: #000000; stroke-width: 0.8; stroke-linejoin: miter; stroke-linecap: square"/>
   </g>
   <g id="patch_303">
    <path d="M 63 320.4 
L 453.6 320.4 
" style="fill: none; stroke: #000000; stroke-width: 0.8; stroke-linejoin: miter; stroke-linecap: square"/>
   </g>
   <g id="patch_304">
    <path d="M 63 43.2 
L 453.6 43.2 
" style="fill: none; stroke: #000000; stroke-width: 0.8; stroke-linejoin: miter; stroke-linecap: square"/>
   </g>
  </g>
 </g>
 <defs>
  <clipPath id="pd5274a88a0">
   <rect x="63" y="43.2" width="390.6" height="277.2"/>
  </clipPath>
 </defs>
</svg>
